ply
format ascii 1.0
comment VTK generated PLY File
obj_info vtkPolyData points and polygons: vtk4.0
element vertex 909
property float x
property float y
property float z
property uchar red
property uchar green
property uchar blue
element face 1684
property list uchar int vertex_indices
end_header
0 -6.09876 -10 220 221 221 
-2 -5.2474 -10 220 221 221 
-2 -6 -9.07206 220 221 221 
-0.579093 -6 -10 220 221 221 
-1 -5.8645 -10 220 221 221 
-1 -6 -9.83771 220 221 221 
-2.2837 -5 -10 220 221 221 
-3 -5 -9.19794 220 221 221 
-2 -4.75115 -10 220 221 221 
-1 -4.08776 -10 220 221 221 
-2 -4 -9.1592 220 221 221 
-0.754026 -4 -10 220 221 221 
-1 -4 -9.90908 220 221 221 
0 -3.43338 -10 220 221 221 
-2 -2.15325 -10 220 221 221 
-1 -2.62344 -10 220 221 221 
-1 -3 -9.42923 220 221 221 
0 -2.86423 -10 220 221 221 
0 -3 -9.79734 220 221 221 
-2.23383 -2 -10 220 221 221 
-3 -1.31636 -10 220 221 221 
-3 -2 -9.14656 220 221 221 
-3.29893 -1 -10 220 221 221 
-3 -0.683314 -10 220 221 221 
-2.24807 0 -10 220 221 221 
-3 0 -9.16322 220 221 221 
-2 0.20905 -10 220 221 221 
-1 0.817837 -10 220 221 221 
-2 1 -9.04243 220 221 221 
-0.416504 1 -10 220 221 221 
-1 1.25883 -10 220 221 221 
-1 1 -9.79082 220 221 221 
-3 2.99515 -10 220 221 221 
-1.8695 2 -10 220 221 221 
-2 2.08782 -10 220 221 221 
-2 2 -9.90367 220 221 221 
-3.00466 3 -10 220 221 221 
-3 3.0049 -10 220 221 221 
-2 3.88151 -10 220 221 221 
-1.80924 4 -10 220 221 221 
-2 4 -9.85793 220 221 221 
-1 4.30908 -10 220 221 221 
0 4.50708 -10 220 221 221 
0 5 -9.06495 220 221 221 
0 6.77611 -10 220 221 221 
0 6 -9.16971 220 221 221 
-2 7 -9.08959 220 221 221 
-0.652203 7 -10 220 221 221 
-1 7 -9.86204 220 221 221 
0 7.22688 -10 220 221 221 
0 8 -9.07357 220 221 221 
-2 -6.03007 -9 220 221 221 
-1 -6.3632 -9 220 221 221 
0 -6.53537 -9 220 221 221 
-2.06478 -6 -9 220 221 221 
-3 -5.15447 -9 220 221 221 
-3.13939 -5 -9 220 221 221 
-3 -4.84522 -9 220 221 221 
-2.14381 -4 -9 220 221 221 
-2 -3.69045 -9 220 221 221 
-3 -2.0863 -9 220 221 221 
-1.56873 -3 -9 220 221 221 
-2 -2.78643 -9 220 221 221 
-2 -3 -8.02185 220 221 221 
-3.10307 -2 -9 220 221 221 
-3.97707 -1 -9 220 221 221 
-4 -1 -8.83681 220 221 221 
-3.11476 0 -9 220 221 221 
-3 0.123625 -9 220 221 221 
-2.03846 1 -9 220 221 221 
-2.81858 2 -9 220 221 221 
-3 2.18242 -9 220 221 221 
-3 2 -8.28565 220 221 221 
-3.70777 3 -9 220 221 221 
-3 3.79199 -9 220 221 221 
-2.77501 4 -9 220 221 221 
-2 4.43656 -9 220 221 221 
-1 4.83264 -9 220 221 221 
-0.167428 5 -9 220 221 221 
-1 5 -8.03256 220 221 221 
-2 6.92595 -9 220 221 221 
-0.427848 6 -9 220 221 221 
-1 6.22142 -9 220 221 221 
-1 6 -8.2476 220 221 221 
-2.08026 7 -9 220 221 221 
-2 7.07378 -9 220 221 221 
-1 7.72294 -9 220 221 221 
-0.174864 8 -9 220 221 221 
0 8.0268 -9 220 221 221 
-1 -9 -7.48971 220 221 221 
0 -9 -7.84336 220 221 221 
0 -8 -7.02576 220 221 221 
-2 -6.13933 -8 220 221 221 
-1 -6.48461 -8 220 221 221 
0 -6.65933 -8 220 221 221 
0 -7 -7.3295 220 221 221 
-2.28554 -6 -8 220 221 221 
-3 -5.32982 -8 220 221 221 
-3 -6 -7.27646 220 221 221 
-3.28544 -5 -8 220 221 221 
-4 -5 -7.05895 220 221 221 
-3 -4.64615 -8 220 221 221 
-2.41142 -4 -8 220 221 221 
-3 -4 -7.39127 220 221 221 
-2.00645 -3 -8 220 221 221 
-3 -2.26376 -8 220 221 221 
-3.29498 -2 -8 220 221 221 
-4 -1.1352 -8 220 221 221 
-4 -2 -7.04344 220 221 221 
-4.10293 -1 -8 220 221 221 
-4 -0.863845 -8 220 221 221 
-3.31357 0 -8 220 221 221 
-4 0 -7.06355 220 221 221 
-3 0.364232 -8 220 221 221 
-2.35046 1 -8 220 221 221 
-3 1.90719 -8 220 221 221 
-3 1 -7.31804 220 221 221 
-3.05704 2 -8 220 221 221 
-3.84412 3 -8 220 221 221 
-4 3 -7.78997 220 221 221 
-3 3.99767 -8 220 221 221 
-2.99761 4 -8 220 221 221 
-3 4 -7.99753 220 221 221 
-2 4.59324 -8 220 221 221 
-1.01358 5 -8 220 221 221 
-2 5 -7.31838 220 221 221 
-1.09261 6 -8 220 221 221 
-2 6.72504 -8 220 221 221 
-2 6 -7.37653 220 221 221 
-2.26372 7 -8 220 221 221 
-3 7 -7.26493 220 221 221 
-2 7.24761 -8 220 221 221 
-1 7.89821 -8 220 221 221 
-2 8 -7.21261 220 221 221 
-0.693313 8 -8 220 221 221 
-1 8 -7.89366 220 221 221 
0 8.10783 -8 220 221 221 
-1 -9.50018 -7 220 221 221 
-1 -10 -6.36621 220 221 221 
0 -9.85835 -7 220 221 221 
0 -10 -6.81996 220 221 221 
-1.71746 -9 -7 220 221 221 
-2 -9 -6.75624 220 221 221 
-1 -8.41858 -7 220 221 221 
-0.0725251 -8 -7 220 221 221 
-1 -8 -6.59826 220 221 221 
-3 -6.13414 -7 220 221 221 
-2 -6.64011 -7 220 221 221 
-2 -7 -6.10336 220 221 221 
-0.937996 -7 -7 220 221 221 
-1 -6.98911 -7 220 221 221 
-1 -7 -6.97358 220 221 221 
-3.21758 -6 -7 220 221 221 
-4 -5.05318 -7 220 221 221 
-4.03962 -5 -7 220 221 221 
-4 -4.94588 -7 220 221 221 
-3.29984 -4 -7 220 221 221 
-3 -3.08365 -7 220 221 221 
-4 -2.02891 -7 220 221 221 
-2.96866 -3 -7 220 221 221 
-3 -2.97548 -7 220 221 221 
-3 -3 -6.95838 220 221 221 
-4.02822 -2 -7 220 221 221 
-4.74228 -1 -7 220 221 221 
-5 -1 -6.45509 220 221 221 
-4.04103 0 -7 220 221 221 
-4 0.054252 -7 220 221 221 
-3.23915 1 -7 220 221 221 
-3.80796 2 -7 220 221 221 
-4 2.26441 -7 220 221 221 
-4 2 -6.66377 220 221 221 
-4.51722 3 -7 220 221 221 
-4 3.70573 -7 220 221 221 
-3.76444 4 -7 220 221 221 
-4 4 -6.59267 220 221 221 
-3 4.57698 -7 220 221 221 
-2.31121 5 -7 220 221 221 
-3 5 -6.09554 220 221 221 
-2.37211 6 -7 220 221 221 
-3 6.72755 -7 220 221 221 
-3 6 -6.18201 220 221 221 
-3.21232 7 -7 220 221 221 
-3 7.25297 -7 220 221 221 
-2.21638 8 -7 220 221 221 
-3 8 -6.00074 220 221 221 
-2 8.09189 -7 220 221 221 
-1 8.3939 -7 220 221 221 
0 8.54895 -7 220 221 221 
-1.4236 -10 -6 220 221 221 
-2 -9.60862 -6 220 221 221 
-2.60962 -9 -6 220 221 221 
-2 -8.28635 -6 220 221 221 
-1.68622 -8 -6 220 221 221 
-2 -7.27642 -6 220 221 221 
-2.08139 -7 -6 220 221 221 
-3 -6.52698 -6 220 221 221 
-3.81977 -6 -6 220 221 221 
-4 -5.77475 -6 220 221 221 
-4.55742 -5 -6 220 221 221 
-4 -4.16879 -6 220 221 221 
-3.8853 -4 -6 220 221 221 
-3.57422 -3 -6 220 221 221 
-4 -2.57624 -6 220 221 221 
-4.53337 -2 -6 220 221 221 
-5 -1.3053 -6 220 221 221 
-5.2081 -1 -6 220 221 221 
-5 -0.694381 -6 220 221 221 
-4.543 0 -6 220 221 221 
-4 0.76269 -6 220 221 221 
-3.81988 1 -6 220 221 221 
-4 1.33862 -6 220 221 221 
-4.33645 2 -6 220 221 221 
-4.99566 3 -6 220 221 221 
-4.30483 4 -6 220 221 221 
-4 4.26318 -6 220 221 221 
-3.05811 5 -6 220 221 221 
-3.11191 6 -6 220 221 221 
-3.82312 7 -6 220 221 221 
-3.00047 8 -6 220 221 221 
-3 8.00025 -6 220 221 221 
-3 8 -5.99225 220 221 221 
-2 8.44013 -6 220 221 221 
-1 8.74396 -6 220 221 221 
0 8.89836 -6 220 221 221 
-1.28546 -10 -5 220 221 221 
-2 -9.51666 -5 220 221 221 
-2 -10 -4.20099 220 221 221 
-2.51633 -9 -5 220 221 221 
-3 -9 -4.19745 220 221 221 
-2 -8.33117 -5 220 221 221 
-1.67064 -8 -5 220 221 221 
-2 -7.29667 -5 220 221 221 
-2 -8 -4.62355 220 221 221 
-2.09384 -7 -5 220 221 221 
-3 -6.51819 -5 220 221 221 
-3.7784 -6 -5 220 221 221 
-4 -5.71555 -5 220 221 221 
-4 -6 -4.4987 220 221 221 
-4.50022 -5 -5 220 221 221 
-4 -4.19511 -5 220 221 221 
-3.87691 -4 -5 220 221 221 
-4 -4 -4.71372 220 221 221 
-3.59342 -3 -5 220 221 221 
-4 -2.5777 -5 220 221 221 
-4 -3 -4.0455 220 221 221 
-4.51147 -2 -5 220 221 221 
-5 -1.23764 -5 220 221 221 
-5.15428 -1 -5 220 221 221 
-5 -0.760121 -5 220 221 221 
-4.52671 0 -5 220 221 221 
-4 0.778512 -5 220 221 221 
-3.83998 1 -5 220 221 221 
-4 1.31994 -5 220 221 221 
-4 1 -4.6204 220 221 221 
-4.32476 2 -5 220 221 221 
-4.94198 3 -5 220 221 221 
-5 3 -4.83735 220 221 221 
-4.27571 4 -5 220 221 221 
-4 4.24792 -5 220 221 221 
-3.07512 5 -5 220 221 221 
-3.10577 6 -5 220 221 221 
-3.75628 7 -5 220 221 221 
-4 7 -4.45898 220 221 221 
-3 7.93445 -5 220 221 221 
-2.93323 8 -5 220 221 221 
-3 8 -4.88701 220 221 221 
-2 8.42279 -5 220 221 221 
-1 8.73421 -5 220 221 221 
0 8.89008 -5 220 221 221 
-1 9 -4.03493 220 221 221 
0 9 -4.60336 220 221 221 
-2.12683 -10 -4 220 221 221 
-3 -9.12453 -4 220 221 221 
-3.09766 -9 -4 220 221 221 
-3 -8.85398 -4 220 221 221 
-2.37831 -8 -4 220 221 221 
-4 -6.15083 -4 220 221 221 
-2.68769 -7 -4 220 221 221 
-3 -6.82957 -4 220 221 221 
-3 -7 -3.48007 220 221 221 
-4.19974 -6 -4 220 221 221 
-4.87253 -5 -4 220 221 221 
-5 -5 -3.67328 220 221 221 
-4.27708 -4 -4 220 221 221 
-4.01748 -3 -4 220 221 221 
-4.87099 -2 -4 220 221 221 
-5 -1.79081 -4 220 221 221 
-5 -2 -3.65119 220 221 221 
-5.49347 -1 -4 220 221 221 
-5 -0.196033 -4 220 221 221 
-4.88337 0 -4 220 221 221 
-5 0 -3.68154 220 221 221 
-4.23558 1 -4 220 221 221 
-4.69226 2 -4 220 221 221 
-5 2.52441 -4 220 221 221 
-5 2 -3.16796 220 221 221 
-5.2939 3 -4 220 221 221 
-5 3.4596 -4 220 221 221 
-4.65218 4 -4 220 221 221 
-5 4 -3.08757 220 221 221 
-4 4.60608 -4 220 221 221 
-3.53056 5 -4 220 221 221 
-3.56638 6 -4 220 221 221 
-4 6.69905 -4 220 221 221 
-4 6 -3.06031 220 221 221 
-4.1878 7 -4 220 221 221 
-4 7.27101 -4 220 221 221 
-3.42819 8 -4 220 221 221 
-3 8.24185 -4 220 221 221 
-2 8.69782 -4 220 221 221 
-1.03101 9 -4 220 221 221 
-1 9.03198 -4 220 221 221 
0 9.54604 -4 220 221 221 
0 10 -3.5096 220 221 221 
-2.79862 -10 -3 220 221 221 
-3 -9.79779 -3 220 221 221 
-3.62336 -9 -3 220 221 221 
-3 -8.00448 -3 220 221 221 
-2.99694 -8 -3 220 221 221 
-3 -7.98987 -3 220 221 221 
-3.23631 -7 -3 220 221 221 
-4 -6.47535 -3 220 221 221 
-4.6146 -6 -3 220 221 221 
-5 -5.40999 -3 220 221 221 
-5.26133 -5 -3 220 221 221 
-5 -4.57606 -3 220 221 221 
-4.66969 -4 -3 220 221 221 
-4.4123 -3 -3 220 221 221 
-5 -2.28869 -3 220 221 221 
-5.23888 -2 -3 220 221 221 
-5.8405 -1 -3 220 221 221 
-5.24742 0 -3 220 221 221 
-5 0.38699 -3 220 221 221 
-4.61599 1 -3 220 221 221 
-5 1.86648 -3 220 221 221 
-5.06161 2 -3 220 221 221 
-5 2 -2.5987 220 221 221 
-5.65552 3 -3 220 221 221 
-5.03317 4 -3 220 221 221 
-5 4.03207 -3 220 221 221 
-5 4 -2.80596 220 221 221 
-4 4.984 -3 220 221 221 
-3.98139 5 -3 220 221 221 
-4 5.42109 -3 220 221 221 
-4.02542 6 -3 220 221 221 
-4 6 -2.85202 220 221 221 
-4.61685 7 -3 220 221 221 
-4 7.90116 -3 220 221 221 
-3.92331 8 -3 220 221 221 
-3 8.53248 -3 220 221 221 
-2 8.98704 -3 220 221 221 
-1.95907 9 -3 220 221 221 
-1 9.9732 -3 220 221 221 
-0.945285 10 -3 220 221 221 
-2.48324 -10 -2 220 221 221 
-3 -9.48058 -2 220 221 221 
-3.37454 -9 -2 220 221 221 
-3 -8.37206 -2 220 221 221 
-2.75785 -8 -2 220 221 221 
-3 -7.22218 -2 220 221 221 
-3.05465 -7 -2 220 221 221 
-4 -6.34002 -2 220 221 221 
-4.43222 -6 -2 220 221 221 
-5 -5.11897 -2 220 221 221 
-5.07476 -5 -2 220 221 221 
-5 -4.87446 -2 220 221 221 
-4.5153 -4 -2 220 221 221 
-4.2737 -3 -2 220 221 221 
-5 -2.10275 -2 220 221 221 
-5.08324 -2 -2 220 221 221 
-5.67411 -1 -2 220 221 221 
-5.097 0 -2 220 221 221 
-5 0.155404 -2 220 221 221 
-4.48312 1 -2 220 221 221 
-4.91257 2 -2 220 221 221 
-5 2.15998 -2 220 221 221 
-5 2 -1.23272 220 221 221 
-5.48266 3 -2 220 221 221 
-5 3.78813 -2 220 221 221 
-4.86918 4 -2 220 221 221 
-4 4.84361 -2 220 221 221 
-3.82121 5 -2 220 221 221 
-3.84849 6 -2 220 221 221 
-4 6.2688 -2 220 221 221 
-4.41385 7 -2 220 221 221 
-4 7.60982 -2 220 221 221 
-3.69955 8 -2 220 221 221 
-3 8.40944 -2 220 221 221 
-2 8.87415 -2 220 221 221 
-1.60666 9 -2 220 221 221 
-1 9.60875 -2 220 221 221 
-0.186833 10 -2 220 221 221 
-2.68788 -10 -1 220 221 221 
-3 -9.68608 -1 220 221 221 
-3 -10 -0.367144 220 221 221 
-3.53389 -9 -1 220 221 221 
-3 -8.0778 -1 220 221 221 
-2.95082 -8 -1 220 221 221 
-3 -7.84484 -1 220 221 221 
-3 -8 -0.8852 220 221 221 
-3.21141 -7 -1 220 221 221 
-4 -6.44415 -1 220 221 221 
-4.55889 -6 -1 220 221 221 
-5 -5.31 -1 220 221 221 
-5.19315 -5 -1 220 221 221 
-5 -4.6688 -1 220 221 221 
-4.63681 -4 -1 220 221 221 
-4.39742 -3 -1 220 221 221 
-5 -2.24641 -1 220 221 221 
-5.19711 -2 -1 220 221 221 
-5.7786 -1 -1 220 221 221 
-6 -1 -0.129075 220 221 221 
-5.20988 0 -1 220 221 221 
-5 0.341111 -1 220 221 221 
-4.60237 1 -1 220 221 221 
-5 1.93917 -1 220 221 221 
-5.02679 2 -1 220 221 221 
-5.59159 3 -1 220 221 221 
-5 3.9764 -1 220 221 221 
-4.98558 4 -1 220 221 221 
-5 4 -0.946616 220 221 221 
-4 4.96694 -1 220 221 221 
-3.96259 5 -1 220 221 221 
-4 5 -0.876925 220 221 221 
-3.9916 6 -1 220 221 221 
-4 6.01527 -1 220 221 221 
-4 6 -0.973616 220 221 221 
-4.54355 7 -1 220 221 221 
-4 7.80504 -1 220 221 221 
-3.85055 8 -1 220 221 221 
-4 8 -0.582565 220 221 221 
-3 8.50223 -1 220 221 221 
-2 8.96732 -1 220 221 221 
-1.89852 9 -1 220 221 221 
-2 9 -0.842151 220 221 221 
-1 9.89569 -1 220 221 221 
-0.780895 10 -1 220 221 221 
-1 10 -0.836683 220 221 221 
-3.15395 -10 0 220 221 221 
-3 -10 0.367144 220 221 221 
-3.91886 -9 0 220 221 221 
-3.31955 -8 0 220 221 221 
-3 -8 0.8852 220 221 221 
-3.54964 -7 0 220 221 221 
-4 -6.68154 0 220 221 221 
-4.85472 -6 0 220 221 221 
-5 -5.77214 0 220 221 221 
-5.47973 -5 0 220 221 221 
-5 -4.17159 0 220 221 221 
-4.90745 -4 0 220 221 221 
-4.66108 -3 0 220 221 221 
-5 -2.57441 0 220 221 221 
-5.45757 -2 0 220 221 221 
-6 -1.05758 0 220 221 221 
-6.0361 -1 0 220 221 221 
-6 -0.942694 0 220 221 221 
-6 -1 0.129075 220 221 221 
-5.4656 0 0 220 221 221 
-5 0.760351 0 220 221 221 
-4.85605 1 0 220 221 221 
-5 1.34196 0 220 221 221 
-5.28809 2 0 220 221 221 
-5.85605 3 0 220 221 221 
-5.26129 4 0 220 221 221 
-5 4.26163 0 220 221 221 
-5 4 0.946616 220 221 221 
-4.24958 5 0 220 221 221 
-4 5 0.876925 220 221 221 
-4.29066 6 0 220 221 221 
-4 6 0.973616 220 221 221 
-4.85688 7 0 220 221 221 
-4.19656 8 0 220 221 221 
-4 8.12871 0 220 221 221 
-4 8 0.582565 220 221 221 
-3 8.71515 0 220 221 221 
-2.38762 9 0 220 221 221 
-2 9.57759 0 220 221 221 
-2 9 0.842151 220 221 221 
-1.57516 10 0 220 221 221 
-1 10 0.836683 220 221 221 
-2.68788 -10 1 220 221 221 
-3 -9.68608 1 220 221 221 
-3.53389 -9 1 220 221 221 
-3 -8.0778 1 220 221 221 
-2.95082 -8 1 220 221 221 
-3 -7.84484 1 220 221 221 
-3.21141 -7 1 220 221 221 
-4 -6.44415 1 220 221 221 
-4.55889 -6 1 220 221 221 
-5 -5.31 1 220 221 221 
-5.19315 -5 1 220 221 221 
-5 -4.6688 1 220 221 221 
-4.63681 -4 1 220 221 221 
-4.39742 -3 1 220 221 221 
-5 -2.24641 1 220 221 221 
-5.19711 -2 1 220 221 221 
-5.7786 -1 1 220 221 221 
-5.20988 0 1 220 221 221 
-5 0.341111 1 220 221 221 
-4.60237 1 1 220 221 221 
-5 1.93917 1 220 221 221 
-5.02679 2 1 220 221 221 
-5 2 1.23272 220 221 221 
-5.59159 3 1 220 221 221 
-5 3.9764 1 220 221 221 
-4.98558 4 1 220 221 221 
-4 4.96694 1 220 221 221 
-3.96259 5 1 220 221 221 
-3.9916 6 1 220 221 221 
-4 6.01527 1 220 221 221 
-4.54355 7 1 220 221 221 
-4 7.80504 1 220 221 221 
-3.85055 8 1 220 221 221 
-3 8.50223 1 220 221 221 
-2 8.96732 1 220 221 221 
-1.89852 9 1 220 221 221 
-1 9.89569 1 220 221 221 
-0.780895 10 1 220 221 221 
-2.48324 -10 2 220 221 221 
-3 -9.48058 2 220 221 221 
-3.37454 -9 2 220 221 221 
-3 -8.37206 2 220 221 221 
-2.75785 -8 2 220 221 221 
-3 -7.22218 2 220 221 221 
-3.05465 -7 2 220 221 221 
-4 -6.34002 2 220 221 221 
-4.43222 -6 2 220 221 221 
-5 -5.11897 2 220 221 221 
-5.07476 -5 2 220 221 221 
-5 -4.87446 2 220 221 221 
-4.5153 -4 2 220 221 221 
-4.2737 -3 2 220 221 221 
-5 -2.10275 2 220 221 221 
-5.08324 -2 2 220 221 221 
-5.67411 -1 2 220 221 221 
-5.097 0 2 220 221 221 
-5 0.155404 2 220 221 221 
-4.48312 1 2 220 221 221 
-4.91257 2 2 220 221 221 
-5 2.15998 2 220 221 221 
-5 2 2.5987 220 221 221 
-5.48266 3 2 220 221 221 
-5 3.78813 2 220 221 221 
-4.86918 4 2 220 221 221 
-5 4 2.80596 220 221 221 
-4 4.84361 2 220 221 221 
-3.82121 5 2 220 221 221 
-3.84849 6 2 220 221 221 
-4 6.2688 2 220 221 221 
-4 6 2.85202 220 221 221 
-4.41385 7 2 220 221 221 
-4 7.60982 2 220 221 221 
-3.69955 8 2 220 221 221 
-3 8.40944 2 220 221 221 
-2 8.87415 2 220 221 221 
-1.60666 9 2 220 221 221 
-1 9.60875 2 220 221 221 
-0.186833 10 2 220 221 221 
-2.79862 -10 3 220 221 221 
-3 -9.79779 3 220 221 221 
-3.62336 -9 3 220 221 221 
-3 -8.00448 3 220 221 221 
-2.99694 -8 3 220 221 221 
-3 -7.98987 3 220 221 221 
-3.23631 -7 3 220 221 221 
-4 -6.47535 3 220 221 221 
-3 -7 3.48007 220 221 221 
-4.6146 -6 3 220 221 221 
-5 -5.40999 3 220 221 221 
-5.26133 -5 3 220 221 221 
-5 -4.57606 3 220 221 221 
-5 -5 3.67328 220 221 221 
-4.66969 -4 3 220 221 221 
-4.4123 -3 3 220 221 221 
-5 -2.28869 3 220 221 221 
-5.23888 -2 3 220 221 221 
-5 -2 3.65119 220 221 221 
-5.8405 -1 3 220 221 221 
-5.24742 0 3 220 221 221 
-5 0.38699 3 220 221 221 
-5 0 3.68154 220 221 221 
-4.61599 1 3 220 221 221 
-5 1.86648 3 220 221 221 
-5.06161 2 3 220 221 221 
-5 2 3.16796 220 221 221 
-5.65552 3 3 220 221 221 
-5.03317 4 3 220 221 221 
-5 4.03207 3 220 221 221 
-5 4 3.08757 220 221 221 
-4 4.984 3 220 221 221 
-3.98139 5 3 220 221 221 
-4 5.42109 3 220 221 221 
-4.02542 6 3 220 221 221 
-4 6 3.06031 220 221 221 
-4.61685 7 3 220 221 221 
-4 7.90116 3 220 221 221 
-3.92331 8 3 220 221 221 
-3 8.53248 3 220 221 221 
-2 8.98704 3 220 221 221 
-1.95907 9 3 220 221 221 
-1 9.9732 3 220 221 221 
-0.945285 10 3 220 221 221 
0 10 3.5096 220 221 221 
-2.12683 -10 4 220 221 221 
-3 -9.12453 4 220 221 221 
-2 -10 4.20099 220 221 221 
-3.09766 -9 4 220 221 221 
-3 -8.85398 4 220 221 221 
-3 -9 4.19745 220 221 221 
-2.37831 -8 4 220 221 221 
-2 -8 4.62355 220 221 221 
-4 -6.15083 4 220 221 221 
-2.68769 -7 4 220 221 221 
-3 -6.82957 4 220 221 221 
-4.19974 -6 4 220 221 221 
-4 -6 4.4987 220 221 221 
-4.87253 -5 4 220 221 221 
-4.27708 -4 4 220 221 221 
-4 -4 4.71372 220 221 221 
-4.01748 -3 4 220 221 221 
-4 -3 4.0455 220 221 221 
-4.87099 -2 4 220 221 221 
-5 -1.79081 4 220 221 221 
-5.49347 -1 4 220 221 221 
-5 -0.196033 4 220 221 221 
-4.88337 0 4 220 221 221 
-4.23558 1 4 220 221 221 
-4 1 4.6204 220 221 221 
-4.69226 2 4 220 221 221 
-5 2.52441 4 220 221 221 
-5.2939 3 4 220 221 221 
-5 3.4596 4 220 221 221 
-5 3 4.83735 220 221 221 
-4.65218 4 4 220 221 221 
-4 4.60608 4 220 221 221 
-3.53056 5 4 220 221 221 
-3.56638 6 4 220 221 221 
-4 6.69905 4 220 221 221 
-4.1878 7 4 220 221 221 
-4 7.27101 4 220 221 221 
-4 7 4.45898 220 221 221 
-3.42819 8 4 220 221 221 
-3 8.24185 4 220 221 221 
-3 8 4.88701 220 221 221 
-2 8.69782 4 220 221 221 
-1.03101 9 4 220 221 221 
-1 9.03198 4 220 221 221 
-1 9 4.03493 220 221 221 
0 9.54604 4 220 221 221 
0 9 4.60336 220 221 221 
-1.28546 -10 5 220 221 221 
-2 -9.51666 5 220 221 221 
-2.51633 -9 5 220 221 221 
-2 -8.33117 5 220 221 221 
-1.67064 -8 5 220 221 221 
-2 -7.29667 5 220 221 221 
-2.09384 -7 5 220 221 221 
-3 -6.51819 5 220 221 221 
-3.7784 -6 5 220 221 221 
-4 -5.71555 5 220 221 221 
-4.50022 -5 5 220 221 221 
-4 -4.19511 5 220 221 221 
-3.87691 -4 5 220 221 221 
-3.59342 -3 5 220 221 221 
-4 -2.5777 5 220 221 221 
-4.51147 -2 5 220 221 221 
-5 -1.23764 5 220 221 221 
-5.15428 -1 5 220 221 221 
-5 -0.760121 5 220 221 221 
-4.52671 0 5 220 221 221 
-4 0.778512 5 220 221 221 
-3.83998 1 5 220 221 221 
-4 1.31994 5 220 221 221 
-4.32476 2 5 220 221 221 
-4.94198 3 5 220 221 221 
-4.27571 4 5 220 221 221 
-4 4.24792 5 220 221 221 
-3.07512 5 5 220 221 221 
-3.10577 6 5 220 221 221 
-3.75628 7 5 220 221 221 
-3 7.93445 5 220 221 221 
-2.93323 8 5 220 221 221 
-3 8 5.99225 220 221 221 
-2 8.42279 5 220 221 221 
-1 8.73421 5 220 221 221 
0 8.89008 5 220 221 221 
-1.4236 -10 6 220 221 221 
-2 -9.60862 6 220 221 221 
-1 -10 6.36621 220 221 221 
0 -10 6.81996 220 221 221 
-2.60962 -9 6 220 221 221 
-2 -8.28635 6 220 221 221 
-2 -9 6.75624 220 221 221 
-1.68622 -8 6 220 221 221 
-2 -7.27642 6 220 221 221 
-1 -8 6.59826 220 221 221 
-2.08139 -7 6 220 221 221 
-3 -6.52698 6 220 221 221 
-2 -7 6.10336 220 221 221 
-1 -7 6.97358 220 221 221 
-3.81977 -6 6 220 221 221 
-4 -5.77475 6 220 221 221 
-4.55742 -5 6 220 221 221 
-4 -4.16879 6 220 221 221 
-3.8853 -4 6 220 221 221 
-3.57422 -3 6 220 221 221 
-4 -2.57624 6 220 221 221 
-3 -3 6.95838 220 221 221 
-4.53337 -2 6 220 221 221 
-5 -1.3053 6 220 221 221 
-5.2081 -1 6 220 221 221 
-5 -0.694381 6 220 221 221 
-5 -1 6.45509 220 221 221 
-4.543 0 6 220 221 221 
-4 0.76269 6 220 221 221 
-3.81988 1 6 220 221 221 
-4 1.33862 6 220 221 221 
-4.33645 2 6 220 221 221 
-4 2 6.66377 220 221 221 
-4.99566 3 6 220 221 221 
-4.30483 4 6 220 221 221 
-4 4.26318 6 220 221 221 
-4 4 6.59267 220 221 221 
-3.05811 5 6 220 221 221 
-3 5 6.09554 220 221 221 
-3.11191 6 6 220 221 221 
-3 6 6.18201 220 221 221 
-3.82312 7 6 220 221 221 
-3.00047 8 6 220 221 221 
-3 8.00025 6 220 221 221 
-3 8 6.00074 220 221 221 
-2 8.44013 6 220 221 221 
-1 8.74396 6 220 221 221 
0 8.89836 6 220 221 221 
-1 -9.50018 7 220 221 221 
0 -9.85835 7 220 221 221 
-1.71746 -9 7 220 221 221 
-1 -8.41858 7 220 221 221 
-1 -9 7.48971 220 221 221 
0 -9 7.84336 220 221 221 
-0.0725251 -8 7 220 221 221 
0 -8 7.02576 220 221 221 
-3 -6.13414 7 220 221 221 
-2 -6.64011 7 220 221 221 
-0.937996 -7 7 220 221 221 
-1 -6.98911 7 220 221 221 
0 -7 7.3295 220 221 221 
-3.21758 -6 7 220 221 221 
-4 -5.05318 7 220 221 221 
-3 -6 7.27646 220 221 221 
-4.03962 -5 7 220 221 221 
-4 -4.94588 7 220 221 221 
-4 -5 7.05895 220 221 221 
-3.29984 -4 7 220 221 221 
-3 -3.08365 7 220 221 221 
-3 -4 7.39127 220 221 221 
-4 -2.02891 7 220 221 221 
-2.96866 -3 7 220 221 221 
-3 -2.97548 7 220 221 221 
-4.02822 -2 7 220 221 221 
-4 -2 7.04344 220 221 221 
-4.74228 -1 7 220 221 221 
-4.04103 0 7 220 221 221 
-4 0.054252 7 220 221 221 
-4 0 7.06355 220 221 221 
-3.23915 1 7 220 221 221 
-3 1 7.31804 220 221 221 
-3.80796 2 7 220 221 221 
-4 2.26441 7 220 221 221 
-4.51722 3 7 220 221 221 
-4 3.70573 7 220 221 221 
-4 3 7.78997 220 221 221 
-3.76444 4 7 220 221 221 
-3 4.57698 7 220 221 221 
-3 4 7.99753 220 221 221 
-2.31121 5 7 220 221 221 
-2 5 7.31838 220 221 221 
-2.37211 6 7 220 221 221 
-3 6.72755 7 220 221 221 
-2 6 7.37653 220 221 221 
-3.21232 7 7 220 221 221 
-3 7.25297 7 220 221 221 
-3 7 7.26493 220 221 221 
-2.21638 8 7 220 221 221 
-2 8.09189 7 220 221 221 
-2 8 7.21261 220 221 221 
-1 8.3939 7 220 221 221 
-1 8 7.89366 220 221 221 
0 8.54895 7 220 221 221 
-2 -6.13933 8 220 221 221 
-1 -6.48461 8 220 221 221 
0 -6.65933 8 220 221 221 
-2.28554 -6 8 220 221 221 
-3 -5.32982 8 220 221 221 
-3.28544 -5 8 220 221 221 
-3 -4.64615 8 220 221 221 
-2.41142 -4 8 220 221 221 
-2.00645 -3 8 220 221 221 
-3 -2.26376 8 220 221 221 
-2 -3 8.02185 220 221 221 
-3.29498 -2 8 220 221 221 
-4 -1.1352 8 220 221 221 
-4.10293 -1 8 220 221 221 
-4 -0.863845 8 220 221 221 
-4 -1 8.83681 220 221 221 
-3.31357 0 8 220 221 221 
-3 0.364232 8 220 221 221 
-2.35046 1 8 220 221 221 
-3 1.90719 8 220 221 221 
-3.05704 2 8 220 221 221 
-3 2 8.28565 220 221 221 
-3.84412 3 8 220 221 221 
-3 3.99767 8 220 221 221 
-2.99761 4 8 220 221 221 
-2 4.59324 8 220 221 221 
-1.01358 5 8 220 221 221 
-1 5 8.03256 220 221 221 
-1.09261 6 8 220 221 221 
-2 6.72504 8 220 221 221 
-1 6 8.2476 220 221 221 
-2.26372 7 8 220 221 221 
-2 7.24761 8 220 221 221 
-1 7.89821 8 220 221 221 
-0.693313 8 8 220 221 221 
0 8.10783 8 220 221 221 
-2 -6.03007 9 220 221 221 
-1 -6.3632 9 220 221 221 
0 -6.53537 9 220 221 221 
-2.06478 -6 9 220 221 221 
-3 -5.15447 9 220 221 221 
-2 -6 9.07206 220 221 221 
-1 -6 9.83771 220 221 221 
-3.13939 -5 9 220 221 221 
-3 -4.84522 9 220 221 221 
-3 -5 9.19794 220 221 221 
-2.14381 -4 9 220 221 221 
-2 -3.69045 9 220 221 221 
-2 -4 9.1592 220 221 221 
-1 -4 9.90908 220 221 221 
-3 -2.0863 9 220 221 221 
-1.56873 -3 9 220 221 221 
-2 -2.78643 9 220 221 221 
-1 -3 9.42923 220 221 221 
0 -3 9.79734 220 221 221 
-3.10307 -2 9 220 221 221 
-3 -2 9.14656 220 221 221 
-3.97707 -1 9 220 221 221 
-3.11476 0 9 220 221 221 
-3 0.123625 9 220 221 221 
-3 0 9.16322 220 221 221 
-2.03846 1 9 220 221 221 
-2 1 9.04243 220 221 221 
-1 1 9.79082 220 221 221 
-2.81858 2 9 220 221 221 
-3 2.18242 9 220 221 221 
-2 2 9.90367 220 221 221 
-3.70777 3 9 220 221 221 
-3 3.79199 9 220 221 221 
-2.77501 4 9 220 221 221 
-2 4.43656 9 220 221 221 
-2 4 9.85793 220 221 221 
-1 4.83264 9 220 221 221 
-0.167428 5 9 220 221 221 
0 5 9.06495 220 221 221 
-2 6.92595 9 220 221 221 
-0.427848 6 9 220 221 221 
-1 6.22142 9 220 221 221 
0 6 9.16971 220 221 221 
-2.08026 7 9 220 221 221 
-2 7.07378 9 220 221 221 
-2 7 9.08959 220 221 221 
-1 7.72294 9 220 221 221 
-1 7 9.86204 220 221 221 
-0.174864 8 9 220 221 221 
0 8.0268 9 220 221 221 
0 8 9.07357 220 221 221 
0 -6.09876 10 220 221 221 
-2 -5.2474 10 220 221 221 
-0.579093 -6 10 220 221 221 
-1 -5.8645 10 220 221 221 
-2.2837 -5 10 220 221 221 
-2 -4.75115 10 220 221 221 
-1 -4.08776 10 220 221 221 
-0.754026 -4 10 220 221 221 
0 -3.43338 10 220 221 221 
-2 -2.15325 10 220 221 221 
-1 -2.62344 10 220 221 221 
0 -2.86423 10 220 221 221 
-2.23383 -2 10 220 221 221 
-3 -1.31636 10 220 221 221 
-3.29893 -1 10 220 221 221 
-3 -0.683314 10 220 221 221 
-2.24807 0 10 220 221 221 
-2 0.20905 10 220 221 221 
-1 0.817837 10 220 221 221 
-0.416504 1 10 220 221 221 
-1 1.25883 10 220 221 221 
-3 2.99515 10 220 221 221 
-1.8695 2 10 220 221 221 
-2 2.08782 10 220 221 221 
-3.00466 3 10 220 221 221 
-3 3.0049 10 220 221 221 
-2 3.88151 10 220 221 221 
-1.80924 4 10 220 221 221 
-1 4.30908 10 220 221 221 
0 4.50708 10 220 221 221 
0 6.77611 10 220 221 221 
-0.652203 7 10 220 221 221 
0 7.22688 10 220 221 221 
3 2 51 54 
3 2 5 52 
3 51 2 52 
3 5 3 0 
3 5 0 52 
3 52 0 53 
3 7 55 56 
3 54 55 7 
3 2 54 7 
3 2 7 6 
3 2 6 1 
3 4 2 1 
3 5 2 4 
3 3 5 4 
3 7 56 57 
3 10 57 58 
3 8 57 10 
3 8 7 57 
3 8 6 7 
3 8 12 9 
3 10 12 8 
3 9 12 11 
3 10 58 59 
3 59 61 16 
3 59 16 10 
3 10 16 12 
3 11 18 13 
3 11 12 18 
3 12 16 18 
3 21 60 64 
3 21 19 14 
3 21 14 60 
3 60 14 62 
3 61 15 16 
3 61 62 15 
3 62 14 15 
3 17 16 15 
3 18 16 17 
3 20 21 64 
3 20 64 22 
3 22 64 65 
3 19 21 20 
3 25 23 22 
3 25 22 67 
3 67 22 65 
3 23 25 24 
3 25 67 68 
3 28 68 69 
3 26 68 28 
3 26 25 68 
3 26 24 25 
3 26 31 27 
3 28 31 26 
3 27 31 29 
3 35 28 69 
3 70 35 69 
3 30 35 33 
3 30 31 35 
3 31 28 35 
3 29 31 30 
3 32 71 73 
3 36 32 73 
3 70 34 35 
3 70 71 34 
3 71 32 34 
3 33 35 34 
3 36 73 74 
3 37 36 74 
3 40 74 75 
3 40 38 74 
3 38 37 74 
3 38 40 39 
3 40 75 76 
3 39 40 76 
3 39 76 41 
3 41 76 77 
3 43 77 78 
3 43 42 77 
3 42 41 77 
3 45 43 78 
3 81 45 78 
3 46 80 84 
3 46 48 82 
3 80 46 82 
3 81 82 48 
3 45 81 48 
3 45 48 47 
3 45 47 44 
3 46 84 85 
3 48 46 85 
3 86 48 85 
3 50 86 87 
3 49 86 50 
3 49 48 86 
3 49 47 48 
3 50 87 88 
3 51 92 96 
3 54 51 96 
3 52 93 51 
3 51 93 92 
3 53 94 52 
3 52 94 93 
3 55 97 99 
3 56 55 99 
3 96 55 54 
3 97 55 96 
3 56 99 101 
3 57 56 101 
3 101 58 57 
3 102 58 101 
3 63 59 58 
3 63 58 104 
3 104 58 102 
3 59 63 61 
3 60 105 106 
3 64 60 106 
3 104 62 63 
3 104 105 62 
3 105 60 62 
3 61 63 62 
3 66 107 109 
3 66 106 107 
3 66 65 106 
3 65 64 106 
3 66 109 110 
3 110 65 66 
3 110 111 65 
3 111 67 65 
3 67 111 113 
3 68 67 113 
3 113 69 68 
3 114 69 113 
3 72 115 117 
3 72 114 115 
3 72 70 114 
3 70 69 114 
3 71 72 117 
3 71 117 73 
3 73 117 118 
3 70 72 71 
3 73 118 120 
3 74 73 120 
3 120 75 74 
3 121 75 120 
3 75 121 123 
3 76 75 123 
3 79 123 124 
3 79 77 123 
3 77 76 123 
3 77 79 78 
3 83 79 124 
3 126 83 124 
3 78 83 81 
3 79 83 78 
3 80 127 129 
3 84 80 129 
3 126 82 83 
3 126 127 82 
3 127 80 82 
3 81 83 82 
3 84 129 131 
3 85 84 131 
3 86 85 132 
3 85 131 132 
3 132 87 86 
3 134 87 132 
3 87 134 136 
3 88 87 136 
3 89 137 141 
3 89 90 139 
3 137 89 139 
3 89 141 143 
3 143 144 91 
3 143 91 89 
3 89 91 90 
3 95 91 144 
3 149 95 144 
3 98 146 152 
3 98 96 92 
3 98 92 146 
3 146 92 147 
3 93 150 92 
3 92 150 147 
3 149 94 95 
3 149 150 94 
3 150 93 94 
3 100 153 154 
3 152 153 100 
3 98 152 100 
3 98 100 99 
3 98 99 97 
3 96 98 97 
3 100 154 155 
3 103 155 156 
3 101 155 103 
3 101 100 155 
3 101 99 100 
3 101 103 102 
3 103 156 157 
3 157 102 103 
3 157 159 102 
3 159 104 102 
3 108 158 162 
3 108 106 105 
3 108 105 158 
3 158 105 160 
3 159 105 104 
3 160 105 159 
3 107 108 162 
3 107 162 109 
3 109 162 163 
3 106 108 107 
3 112 110 109 
3 112 109 165 
3 165 109 163 
3 110 112 111 
3 112 165 166 
3 116 166 167 
3 113 166 116 
3 113 112 166 
3 113 111 112 
3 113 116 114 
3 115 116 167 
3 115 167 117 
3 117 167 168 
3 114 116 115 
3 119 169 171 
3 119 168 169 
3 119 118 168 
3 118 117 168 
3 119 171 172 
3 122 172 173 
3 120 172 122 
3 120 119 172 
3 120 118 119 
3 120 122 121 
3 122 173 175 
3 125 175 176 
3 123 175 125 
3 123 122 175 
3 123 121 122 
3 123 125 124 
3 128 125 176 
3 178 128 176 
3 124 128 126 
3 125 128 124 
3 130 179 181 
3 178 179 130 
3 128 178 130 
3 128 130 129 
3 128 129 127 
3 126 128 127 
3 130 181 182 
3 133 182 183 
3 131 182 133 
3 131 130 182 
3 131 129 130 
3 131 135 132 
3 133 135 131 
3 132 135 134 
3 133 183 185 
3 135 133 185 
3 186 135 185 
3 134 135 186 
3 134 186 136 
3 136 186 187 
3 142 189 190 
3 188 189 142 
3 138 188 142 
3 138 142 141 
3 138 141 137 
3 139 138 137 
3 140 138 139 
3 142 190 191 
3 145 191 192 
3 143 191 145 
3 143 142 191 
3 143 141 142 
3 143 145 144 
3 148 193 194 
3 192 193 148 
3 192 148 145 
3 145 148 151 
3 144 151 149 
3 145 151 144 
3 146 195 196 
3 152 146 196 
3 194 147 148 
3 194 195 147 
3 195 146 147 
3 150 148 147 
3 151 148 150 
3 149 151 150 
3 153 197 198 
3 154 153 198 
3 196 153 152 
3 197 153 196 
3 154 198 199 
3 155 154 199 
3 199 156 155 
3 200 156 199 
3 161 157 156 
3 161 156 201 
3 201 156 200 
3 157 161 159 
3 158 202 203 
3 162 158 203 
3 201 160 161 
3 201 202 160 
3 202 158 160 
3 159 161 160 
3 164 204 205 
3 164 203 204 
3 164 163 203 
3 163 162 203 
3 164 205 206 
3 206 163 164 
3 206 207 163 
3 207 165 163 
3 165 207 208 
3 166 165 208 
3 208 167 166 
3 209 167 208 
3 170 210 211 
3 170 209 210 
3 170 168 209 
3 168 167 209 
3 169 170 211 
3 169 211 171 
3 171 211 212 
3 168 170 169 
3 174 172 171 
3 174 171 213 
3 213 171 212 
3 172 174 173 
3 174 213 214 
3 177 214 215 
3 175 214 177 
3 175 174 214 
3 175 173 174 
3 175 177 176 
3 180 177 215 
3 216 180 215 
3 176 180 178 
3 177 180 176 
3 179 180 216 
3 179 216 181 
3 181 216 217 
3 178 180 179 
3 184 182 181 
3 184 181 218 
3 218 181 217 
3 182 184 183 
3 184 218 219 
3 183 184 219 
3 183 219 185 
3 185 219 221 
3 186 185 222 
3 185 221 222 
3 187 186 223 
3 186 222 223 
3 189 225 227 
3 190 189 227 
3 224 189 188 
3 225 189 224 
3 190 227 229 
3 191 190 229 
3 229 192 191 
3 230 192 229 
3 193 231 233 
3 194 193 233 
3 230 193 192 
3 231 193 230 
3 195 234 235 
3 196 195 235 
3 233 195 194 
3 234 195 233 
3 197 236 238 
3 198 197 238 
3 235 197 196 
3 236 197 235 
3 198 238 239 
3 199 198 239 
3 239 200 199 
3 240 200 239 
3 200 240 201 
3 240 242 201 
3 202 243 245 
3 203 202 245 
3 242 202 201 
3 243 202 242 
3 204 246 247 
3 205 204 247 
3 245 204 203 
3 246 204 245 
3 205 247 248 
3 206 205 248 
3 248 207 206 
3 249 207 248 
3 207 249 250 
3 208 207 250 
3 250 209 208 
3 251 209 250 
3 210 252 254 
3 211 210 254 
3 251 210 209 
3 252 210 251 
3 211 254 212 
3 254 255 212 
3 212 255 213 
3 255 257 213 
3 213 257 258 
3 214 213 258 
3 258 215 214 
3 259 215 258 
3 215 259 216 
3 259 260 216 
3 216 260 217 
3 260 261 217 
3 263 220 218 
3 263 218 261 
3 261 218 217 
3 263 264 220 
3 218 220 219 
3 220 264 266 
3 220 266 219 
3 219 266 221 
3 222 221 267 
3 221 266 267 
3 223 222 268 
3 222 267 268 
3 228 272 273 
3 271 272 228 
3 226 271 228 
3 226 228 227 
3 226 227 225 
3 224 226 225 
3 228 273 274 
3 232 274 275 
3 229 274 232 
3 229 228 274 
3 229 227 228 
3 229 232 230 
3 231 232 275 
3 231 275 233 
3 233 275 277 
3 230 232 231 
3 237 276 280 
3 237 235 234 
3 237 234 276 
3 276 234 278 
3 277 234 233 
3 278 234 277 
3 236 237 280 
3 236 280 238 
3 238 280 281 
3 235 237 236 
3 241 239 238 
3 241 238 283 
3 283 238 281 
3 239 241 240 
3 244 241 283 
3 284 244 283 
3 240 244 242 
3 241 244 240 
3 243 244 284 
3 243 284 245 
3 245 284 285 
3 242 244 243 
3 246 286 288 
3 247 246 288 
3 285 246 245 
3 286 246 285 
3 247 288 289 
3 248 247 289 
3 289 249 248 
3 290 249 289 
3 253 250 249 
3 253 249 292 
3 292 249 290 
3 250 253 251 
3 252 253 292 
3 252 292 254 
3 254 292 293 
3 251 253 252 
3 256 294 296 
3 256 293 294 
3 256 255 293 
3 255 254 293 
3 256 296 297 
3 297 255 256 
3 297 298 255 
3 298 257 255 
3 257 298 300 
3 258 257 300 
3 300 259 258 
3 301 259 300 
3 259 301 260 
3 301 302 260 
3 262 303 305 
3 262 302 303 
3 262 261 302 
3 261 260 302 
3 262 305 306 
3 265 306 307 
3 263 306 265 
3 263 262 306 
3 263 261 262 
3 263 265 264 
3 265 307 308 
3 264 265 308 
3 264 308 266 
3 266 308 309 
3 269 309 310 
3 269 267 309 
3 267 266 309 
3 267 270 268 
3 269 270 267 
3 269 310 311 
3 270 269 311 
3 312 270 311 
3 272 315 316 
3 273 272 316 
3 314 272 271 
3 315 272 314 
3 273 316 317 
3 274 273 317 
3 317 275 274 
3 318 275 317 
3 279 319 320 
3 279 318 319 
3 279 277 318 
3 277 275 318 
3 276 321 322 
3 280 276 322 
3 320 278 279 
3 320 321 278 
3 321 276 278 
3 277 279 278 
3 282 323 324 
3 282 322 323 
3 282 281 322 
3 281 280 322 
3 282 324 325 
3 325 281 282 
3 325 326 281 
3 326 283 281 
3 283 326 284 
3 326 327 284 
3 287 328 329 
3 287 327 328 
3 287 285 327 
3 285 284 327 
3 286 287 329 
3 286 329 288 
3 288 329 330 
3 285 287 286 
3 291 289 288 
3 291 288 331 
3 331 288 330 
3 289 291 290 
3 291 331 332 
3 332 290 291 
3 332 333 290 
3 333 292 290 
3 295 334 335 
3 295 333 334 
3 295 293 333 
3 293 292 333 
3 294 295 335 
3 294 335 296 
3 296 335 337 
3 293 295 294 
3 299 297 296 
3 299 296 338 
3 338 296 337 
3 297 299 298 
3 299 338 339 
3 298 299 339 
3 298 339 300 
3 300 339 341 
3 341 301 300 
3 342 301 341 
3 304 343 344 
3 304 342 343 
3 304 302 342 
3 302 301 342 
3 303 304 344 
3 303 344 305 
3 305 344 346 
3 302 304 303 
3 305 346 347 
3 306 305 347 
3 347 307 306 
3 348 307 347 
3 307 348 349 
3 308 307 349 
3 309 308 350 
3 308 349 350 
3 350 310 309 
3 351 310 350 
3 310 351 352 
3 311 310 352 
3 313 352 353 
3 313 312 352 
3 312 311 352 
3 315 355 356 
3 316 315 356 
3 354 315 314 
3 355 315 354 
3 316 356 357 
3 317 316 357 
3 357 318 317 
3 358 318 357 
3 319 359 360 
3 320 319 360 
3 358 319 318 
3 359 319 358 
3 321 361 362 
3 322 321 362 
3 360 321 320 
3 361 321 360 
3 323 363 364 
3 324 323 364 
3 362 323 322 
3 363 323 362 
3 324 364 365 
3 325 324 365 
3 365 326 325 
3 366 326 365 
3 326 366 327 
3 366 367 327 
3 328 368 369 
3 329 328 369 
3 367 328 327 
3 368 328 367 
3 329 369 330 
3 369 370 330 
3 330 370 331 
3 370 371 331 
3 331 371 372 
3 332 331 372 
3 372 333 332 
3 373 333 372 
3 334 336 335 
3 334 374 336 
3 334 333 374 
3 333 373 374 
3 336 375 377 
3 336 377 335 
3 335 377 337 
3 374 375 336 
3 378 340 338 
3 378 338 377 
3 377 338 337 
3 378 379 340 
3 338 340 339 
3 340 379 380 
3 340 380 339 
3 339 380 341 
3 380 342 341 
3 381 342 380 
3 343 345 344 
3 343 382 345 
3 343 342 382 
3 342 381 382 
3 345 383 384 
3 345 384 344 
3 344 384 346 
3 382 383 345 
3 346 384 385 
3 347 346 385 
3 385 348 347 
3 386 348 385 
3 348 386 387 
3 349 348 387 
3 350 349 388 
3 349 387 388 
3 388 351 350 
3 389 351 388 
3 351 389 390 
3 352 351 390 
3 390 353 352 
3 391 353 390 
3 355 393 395 
3 356 355 395 
3 392 355 354 
3 393 355 392 
3 356 395 396 
3 357 356 396 
3 396 358 357 
3 397 358 396 
3 359 398 400 
3 360 359 400 
3 397 359 358 
3 398 359 397 
3 361 401 402 
3 362 361 402 
3 400 361 360 
3 401 361 400 
3 363 403 404 
3 364 363 404 
3 402 363 362 
3 403 363 402 
3 364 404 405 
3 365 364 405 
3 405 366 365 
3 406 366 405 
3 366 406 367 
3 406 407 367 
3 368 408 409 
3 369 368 409 
3 407 368 367 
3 408 368 407 
3 369 409 370 
3 409 410 370 
3 370 410 371 
3 410 412 371 
3 371 412 413 
3 372 371 413 
3 413 373 372 
3 414 373 413 
3 376 415 416 
3 376 414 415 
3 376 374 414 
3 374 373 414 
3 375 376 416 
3 375 416 377 
3 377 416 417 
3 374 376 375 
3 377 417 418 
3 378 377 418 
3 418 379 378 
3 419 379 418 
3 379 419 421 
3 380 379 421 
3 421 381 380 
3 422 381 421 
3 381 422 382 
3 422 424 382 
3 383 425 427 
3 384 383 427 
3 424 383 382 
3 425 383 424 
3 384 427 428 
3 385 384 428 
3 428 386 385 
3 429 386 428 
3 386 429 431 
3 387 386 431 
3 388 387 432 
3 387 431 432 
3 432 389 388 
3 433 389 432 
3 389 433 435 
3 390 389 435 
3 435 391 390 
3 436 391 435 
3 393 394 438 
3 393 438 395 
3 395 438 440 
3 392 394 393 
3 399 396 395 
3 399 395 441 
3 441 395 440 
3 396 399 397 
3 398 399 441 
3 398 441 400 
3 400 441 443 
3 397 399 398 
3 401 444 445 
3 402 401 445 
3 443 401 400 
3 444 401 443 
3 403 446 447 
3 404 403 447 
3 445 403 402 
3 446 403 445 
3 404 447 448 
3 405 404 448 
3 448 406 405 
3 449 406 448 
3 406 449 407 
3 449 450 407 
3 408 451 452 
3 409 408 452 
3 450 408 407 
3 451 408 450 
3 411 453 454 
3 411 452 453 
3 411 410 452 
3 410 409 452 
3 411 454 455 
3 455 410 411 
3 455 457 410 
3 457 412 410 
3 412 457 458 
3 413 412 458 
3 458 414 413 
3 459 414 458 
3 415 460 461 
3 416 415 461 
3 459 415 414 
3 460 415 459 
3 416 461 417 
3 461 462 417 
3 420 418 417 
3 420 417 463 
3 463 417 462 
3 418 420 419 
3 420 463 464 
3 423 464 466 
3 421 464 423 
3 421 420 464 
3 421 419 420 
3 421 423 422 
3 426 423 466 
3 468 426 466 
3 422 426 424 
3 423 426 422 
3 425 426 468 
3 425 468 427 
3 427 468 470 
3 424 426 425 
3 430 428 427 
3 430 427 471 
3 471 427 470 
3 428 430 429 
3 430 471 472 
3 429 430 472 
3 429 472 431 
3 431 472 474 
3 434 474 475 
3 434 432 474 
3 432 431 474 
3 432 434 433 
3 434 475 476 
3 437 476 478 
3 435 476 437 
3 435 434 476 
3 435 433 434 
3 435 437 436 
3 439 481 482 
3 439 482 438 
3 438 482 440 
3 480 481 439 
3 483 442 441 
3 483 441 482 
3 482 441 440 
3 483 484 442 
3 442 485 486 
3 442 486 441 
3 441 486 443 
3 484 485 442 
3 444 487 488 
3 445 444 488 
3 486 444 443 
3 487 444 486 
3 446 489 490 
3 447 446 490 
3 488 446 445 
3 489 446 488 
3 447 490 491 
3 448 447 491 
3 491 449 448 
3 492 449 491 
3 449 492 450 
3 492 493 450 
3 451 494 495 
3 452 451 495 
3 493 451 450 
3 494 451 493 
3 453 456 454 
3 453 496 456 
3 453 452 496 
3 452 495 496 
3 454 456 455 
3 456 457 455 
3 456 496 457 
3 496 497 457 
3 457 497 498 
3 458 457 498 
3 498 459 458 
3 499 459 498 
3 460 500 501 
3 461 460 501 
3 499 460 459 
3 500 460 499 
3 461 501 462 
3 501 503 462 
3 504 465 463 
3 504 463 503 
3 503 463 462 
3 504 505 465 
3 463 465 464 
3 466 506 467 
3 464 506 466 
3 464 505 506 
3 464 465 505 
3 506 507 467 
3 467 469 468 
3 466 467 468 
3 508 467 507 
3 469 467 508 
3 469 509 510 
3 469 510 468 
3 468 510 470 
3 508 509 469 
3 511 473 471 
3 511 471 510 
3 510 471 470 
3 511 512 473 
3 471 473 472 
3 473 512 513 
3 473 513 472 
3 472 513 474 
3 475 514 477 
3 475 474 514 
3 474 513 514 
3 514 515 477 
3 475 477 476 
3 478 516 479 
3 476 516 478 
3 476 515 516 
3 476 477 515 
3 516 517 479 
3 481 519 520 
3 482 481 520 
3 518 481 480 
3 519 481 518 
3 482 520 521 
3 483 482 521 
3 521 484 483 
3 522 484 521 
3 485 523 524 
3 486 485 524 
3 522 485 484 
3 523 485 522 
3 487 525 526 
3 488 487 526 
3 524 487 486 
3 525 487 524 
3 489 527 528 
3 490 489 528 
3 526 489 488 
3 527 489 526 
3 490 528 529 
3 491 490 529 
3 529 492 491 
3 530 492 529 
3 492 530 493 
3 530 531 493 
3 494 532 533 
3 495 494 533 
3 531 494 493 
3 532 494 531 
3 495 533 496 
3 533 534 496 
3 496 534 497 
3 534 535 497 
3 497 535 536 
3 498 497 536 
3 536 499 498 
3 537 499 536 
3 500 502 501 
3 500 538 502 
3 500 499 538 
3 499 537 538 
3 502 539 541 
3 502 541 501 
3 501 541 503 
3 538 539 502 
3 503 541 542 
3 504 503 542 
3 542 505 504 
3 543 505 542 
3 505 543 545 
3 506 505 545 
3 545 507 506 
3 546 507 545 
3 507 546 508 
3 546 547 508 
3 509 548 550 
3 510 509 550 
3 547 509 508 
3 548 509 547 
3 510 550 551 
3 511 510 551 
3 551 512 511 
3 552 512 551 
3 512 552 553 
3 513 512 553 
3 514 513 554 
3 513 553 554 
3 554 515 514 
3 555 515 554 
3 515 555 556 
3 516 515 556 
3 556 517 516 
3 557 517 556 
3 519 559 560 
3 520 519 560 
3 558 519 518 
3 559 519 558 
3 520 560 561 
3 521 520 561 
3 561 522 521 
3 562 522 561 
3 523 563 564 
3 524 523 564 
3 562 523 522 
3 563 523 562 
3 525 565 567 
3 526 525 567 
3 564 525 524 
3 565 525 564 
3 527 568 569 
3 528 527 569 
3 567 527 526 
3 568 527 567 
3 528 569 570 
3 529 528 570 
3 570 530 529 
3 572 530 570 
3 530 572 531 
3 572 573 531 
3 532 574 575 
3 533 532 575 
3 573 532 531 
3 574 532 573 
3 533 575 534 
3 575 577 534 
3 534 577 535 
3 577 578 535 
3 535 578 579 
3 536 535 579 
3 579 537 536 
3 581 537 579 
3 540 582 583 
3 540 581 582 
3 540 538 581 
3 538 537 581 
3 539 540 583 
3 539 583 541 
3 541 583 585 
3 538 540 539 
3 544 542 541 
3 544 541 586 
3 586 541 585 
3 542 544 543 
3 544 586 587 
3 543 544 587 
3 543 587 545 
3 545 587 589 
3 589 546 545 
3 590 546 589 
3 549 591 592 
3 549 590 591 
3 549 547 590 
3 547 546 590 
3 548 549 592 
3 548 592 550 
3 550 592 594 
3 547 549 548 
3 550 594 595 
3 551 550 595 
3 595 552 551 
3 596 552 595 
3 552 596 597 
3 553 552 597 
3 554 553 598 
3 553 597 598 
3 598 555 554 
3 599 555 598 
3 555 599 600 
3 556 555 600 
3 600 557 556 
3 601 557 600 
3 559 604 606 
3 560 559 606 
3 603 559 558 
3 604 559 603 
3 560 606 607 
3 561 560 607 
3 607 562 561 
3 609 562 607 
3 563 566 564 
3 563 612 566 
3 563 562 612 
3 562 609 612 
3 565 611 614 
3 567 565 614 
3 566 565 564 
3 566 613 565 
3 613 611 565 
3 612 613 566 
3 568 571 569 
3 568 616 571 
3 568 567 616 
3 567 614 616 
3 569 571 570 
3 571 572 570 
3 571 616 572 
3 616 617 572 
3 572 617 573 
3 617 619 573 
3 574 576 575 
3 574 621 576 
3 574 573 621 
3 573 619 621 
3 576 622 623 
3 576 623 575 
3 575 623 577 
3 621 622 576 
3 624 580 578 
3 624 578 623 
3 623 578 577 
3 624 625 580 
3 578 580 579 
3 580 581 579 
3 580 625 581 
3 625 626 581 
3 582 584 583 
3 582 628 584 
3 582 581 628 
3 581 626 628 
3 584 629 630 
3 584 630 583 
3 583 630 585 
3 628 629 584 
3 631 588 586 
3 631 586 630 
3 630 586 585 
3 631 633 588 
3 586 588 587 
3 588 633 634 
3 588 634 587 
3 587 634 589 
3 634 590 589 
3 635 590 634 
3 591 593 592 
3 591 636 593 
3 591 590 636 
3 590 635 636 
3 593 637 638 
3 593 638 592 
3 592 638 594 
3 636 637 593 
3 594 638 639 
3 595 594 639 
3 639 596 595 
3 641 596 639 
3 596 641 642 
3 597 596 642 
3 598 597 644 
3 597 642 644 
3 644 599 598 
3 645 599 644 
3 599 645 646 
3 600 599 646 
3 601 648 602 
3 601 600 648 
3 600 646 648 
3 604 608 606 
3 604 652 608 
3 603 652 604 
3 603 651 652 
3 603 605 651 
3 650 651 605 
3 606 608 607 
3 609 653 610 
3 607 653 609 
3 607 652 653 
3 607 608 652 
3 653 654 610 
3 610 655 656 
3 610 656 609 
3 609 656 612 
3 654 655 610 
3 611 615 614 
3 658 615 611 
3 658 611 657 
3 657 611 613 
3 656 613 612 
3 657 613 656 
3 615 659 660 
3 615 660 614 
3 614 660 616 
3 658 659 615 
3 661 618 617 
3 661 617 660 
3 660 617 616 
3 661 662 618 
3 618 620 619 
3 617 618 619 
3 663 618 662 
3 620 618 663 
3 620 664 665 
3 620 665 619 
3 619 665 621 
3 663 664 620 
3 622 666 667 
3 623 622 667 
3 665 622 621 
3 666 622 665 
3 623 667 668 
3 624 623 668 
3 668 625 624 
3 669 625 668 
3 670 627 626 
3 670 626 669 
3 669 626 625 
3 670 671 627 
3 627 672 673 
3 627 673 626 
3 626 673 628 
3 671 672 627 
3 629 632 630 
3 629 674 632 
3 629 628 674 
3 628 673 674 
3 630 632 631 
3 632 633 631 
3 632 674 633 
3 674 675 633 
3 633 675 676 
3 634 633 676 
3 676 635 634 
3 677 635 676 
3 635 677 636 
3 677 678 636 
3 637 640 638 
3 637 679 640 
3 637 636 679 
3 636 678 679 
3 638 640 639 
3 641 680 643 
3 639 680 641 
3 639 679 680 
3 639 640 679 
3 680 681 643 
3 641 643 642 
3 643 681 683 
3 643 683 642 
3 642 683 644 
3 645 684 647 
3 645 644 684 
3 644 683 684 
3 647 685 649 
3 684 685 647 
3 645 647 646 
3 648 646 647 
3 649 648 647 
3 651 687 690 
3 652 651 690 
3 686 651 650 
3 687 651 686 
3 652 690 691 
3 653 652 691 
3 691 654 653 
3 693 654 691 
3 655 694 696 
3 656 655 696 
3 693 655 654 
3 694 655 693 
3 657 697 700 
3 658 657 700 
3 696 657 656 
3 697 657 696 
3 659 701 702 
3 660 659 702 
3 700 659 658 
3 701 659 700 
3 660 702 703 
3 661 660 703 
3 703 662 661 
3 704 662 703 
3 662 704 663 
3 704 705 663 
3 664 706 708 
3 665 664 708 
3 705 664 663 
3 706 664 705 
3 666 709 710 
3 667 666 710 
3 708 666 665 
3 709 666 708 
3 667 710 711 
3 668 667 711 
3 711 669 668 
3 713 669 711 
3 669 713 714 
3 670 669 714 
3 714 671 670 
3 715 671 714 
3 672 716 717 
3 673 672 717 
3 715 672 671 
3 716 672 715 
3 673 717 674 
3 717 719 674 
3 674 719 675 
3 719 720 675 
3 675 720 721 
3 676 675 721 
3 721 677 676 
3 723 677 721 
3 677 723 678 
3 723 725 678 
3 678 725 679 
3 725 727 679 
3 682 680 679 
3 682 679 728 
3 728 679 727 
3 680 682 681 
3 682 728 729 
3 681 682 729 
3 681 729 683 
3 683 729 731 
3 684 683 732 
3 683 731 732 
3 685 684 733 
3 684 732 733 
3 687 692 690 
3 687 736 692 
3 686 736 687 
3 686 734 736 
3 686 688 734 
3 689 734 688 
3 735 734 689 
3 690 692 691 
3 693 737 695 
3 691 737 693 
3 691 736 737 
3 691 692 736 
3 737 740 695 
3 694 698 696 
3 694 693 695 
3 694 695 698 
3 698 695 699 
3 744 695 740 
3 699 695 744 
3 697 742 747 
3 700 697 747 
3 698 697 696 
3 698 743 697 
3 743 742 697 
3 699 743 698 
3 745 743 699 
3 744 745 699 
3 701 748 750 
3 702 701 750 
3 747 701 700 
3 748 701 747 
3 702 750 751 
3 703 702 751 
3 751 704 703 
3 753 704 751 
3 754 707 705 
3 754 705 753 
3 753 705 704 
3 754 757 707 
3 706 756 759 
3 708 706 759 
3 707 706 705 
3 707 758 706 
3 758 756 706 
3 757 758 707 
3 709 712 710 
3 709 761 712 
3 709 708 761 
3 708 759 761 
3 710 712 711 
3 712 713 711 
3 712 761 713 
3 761 762 713 
3 713 762 763 
3 714 713 763 
3 763 715 714 
3 765 715 763 
3 716 718 717 
3 716 767 718 
3 716 715 767 
3 715 765 767 
3 718 768 769 
3 718 769 717 
3 717 769 719 
3 767 768 718 
3 770 722 720 
3 770 720 769 
3 769 720 719 
3 770 772 722 
3 720 722 721 
3 723 773 724 
3 721 773 723 
3 721 772 773 
3 721 722 772 
3 773 775 724 
3 724 726 725 
3 723 724 725 
3 777 724 775 
3 726 724 777 
3 726 778 780 
3 726 780 725 
3 725 780 727 
3 777 778 726 
3 781 730 728 
3 781 728 780 
3 780 728 727 
3 781 783 730 
3 728 730 729 
3 730 783 784 
3 730 784 729 
3 729 784 731 
3 732 731 786 
3 731 784 786 
3 733 732 788 
3 732 786 788 
3 734 738 736 
3 734 735 739 
3 738 734 739 
3 736 738 737 
3 740 737 738 
3 740 738 741 
3 741 738 739 
3 741 746 744 
3 740 741 744 
3 742 749 747 
3 792 749 742 
3 792 742 789 
3 789 742 743 
3 745 790 743 
3 743 790 789 
3 746 745 744 
3 746 791 745 
3 791 790 745 
3 748 752 750 
3 748 794 752 
3 747 794 748 
3 747 793 794 
3 747 749 793 
3 792 793 749 
3 750 752 751 
3 753 795 755 
3 751 795 753 
3 751 794 795 
3 751 752 794 
3 795 796 755 
3 753 755 754 
3 755 757 754 
3 755 796 757 
3 796 797 757 
3 756 760 759 
3 800 760 756 
3 800 756 798 
3 798 756 758 
3 797 758 757 
3 798 758 797 
3 760 801 802 
3 760 802 759 
3 759 802 761 
3 800 801 760 
3 803 764 762 
3 803 762 802 
3 802 762 761 
3 803 805 764 
3 762 764 763 
3 765 806 766 
3 763 806 765 
3 763 805 806 
3 763 764 805 
3 806 807 766 
3 766 808 809 
3 766 809 765 
3 765 809 767 
3 807 808 766 
3 768 771 769 
3 768 811 771 
3 768 767 811 
3 767 809 811 
3 769 771 770 
3 772 812 774 
3 770 812 772 
3 770 811 812 
3 770 771 811 
3 812 813 774 
3 772 774 773 
3 775 814 776 
3 773 814 775 
3 773 813 814 
3 773 774 813 
3 814 815 776 
3 776 779 777 
3 775 776 777 
3 817 776 815 
3 779 776 817 
3 778 782 780 
3 778 820 782 
3 777 820 778 
3 777 818 820 
3 777 779 818 
3 817 818 779 
3 780 782 781 
3 783 821 785 
3 781 821 783 
3 781 820 821 
3 781 782 820 
3 785 822 787 
3 821 822 785 
3 822 823 787 
3 783 785 784 
3 786 784 785 
3 787 786 785 
3 787 823 824 
3 787 824 786 
3 786 824 788 
3 789 825 828 
3 792 789 828 
3 790 826 789 
3 789 826 825 
3 791 827 790 
3 790 827 826 
3 793 829 832 
3 794 793 832 
3 828 793 792 
3 829 793 828 
3 794 832 833 
3 795 794 833 
3 833 796 795 
3 835 796 833 
3 836 799 797 
3 836 797 835 
3 835 797 796 
3 836 840 799 
3 798 839 844 
3 800 798 844 
3 799 798 797 
3 799 841 798 
3 841 839 798 
3 840 841 799 
3 801 804 802 
3 801 846 804 
3 801 800 846 
3 800 844 846 
3 802 804 803 
3 804 805 803 
3 804 846 805 
3 846 847 805 
3 805 847 848 
3 806 805 848 
3 848 807 806 
3 850 807 848 
3 808 810 809 
3 808 853 810 
3 808 807 853 
3 807 850 853 
3 810 854 856 
3 810 856 809 
3 809 856 811 
3 853 854 810 
3 811 856 857 
3 812 811 857 
3 857 813 812 
3 858 813 857 
3 813 858 859 
3 814 813 859 
3 815 861 816 
3 815 814 861 
3 814 859 861 
3 861 862 816 
3 816 819 817 
3 815 816 817 
3 865 816 862 
3 819 816 865 
3 818 864 868 
3 820 818 868 
3 819 818 817 
3 819 866 818 
3 866 864 818 
3 865 866 819 
3 820 868 869 
3 821 820 869 
3 822 821 871 
3 821 869 871 
3 871 823 822 
3 873 823 871 
3 823 873 874 
3 824 823 874 
3 825 830 828 
3 825 826 831 
3 830 825 831 
3 878 831 826 
3 878 826 876 
3 876 826 827 
3 829 834 832 
3 829 880 834 
3 828 880 829 
3 828 877 880 
3 828 830 877 
3 831 877 830 
3 879 877 831 
3 878 879 831 
3 832 834 833 
3 835 881 837 
3 833 881 835 
3 833 880 881 
3 833 834 880 
3 837 882 838 
3 881 882 837 
3 882 883 838 
3 835 837 836 
3 840 836 837 
3 840 837 842 
3 842 837 838 
3 884 838 883 
3 884 843 838 
3 843 842 838 
3 839 845 844 
3 888 845 839 
3 888 839 885 
3 885 839 841 
3 842 841 840 
3 842 886 841 
3 886 885 841 
3 843 886 842 
3 887 886 843 
3 845 889 890 
3 845 890 844 
3 844 890 846 
3 888 889 845 
3 891 849 847 
3 891 847 890 
3 890 847 846 
3 891 892 849 
3 847 849 848 
3 850 893 851 
3 848 893 850 
3 848 892 893 
3 848 849 892 
3 851 894 852 
3 893 894 851 
3 894 895 852 
3 851 855 853 
3 850 851 853 
3 898 852 896 
3 898 855 852 
3 855 851 852 
3 895 896 852 
3 854 897 900 
3 856 854 900 
3 855 854 853 
3 855 899 854 
3 899 897 854 
3 898 899 855 
3 856 900 901 
3 857 856 901 
3 858 902 860 
3 858 857 902 
3 857 901 902 
3 902 903 860 
3 858 860 859 
3 860 903 904 
3 860 904 859 
3 859 904 861 
3 862 905 863 
3 862 861 905 
3 861 904 905 
3 863 867 865 
3 862 863 865 
3 864 870 868 
3 864 866 872 
3 870 864 872 
3 866 907 872 
3 865 907 866 
3 865 906 907 
3 865 867 906 
3 868 870 869 
3 871 869 870 
3 872 871 870 
3 873 908 875 
3 871 908 873 
3 871 907 908 
3 871 872 907 
3 873 875 874 
