ply
format ascii 1.0
comment VTK generated PLY File
obj_info vtkPolyData points and polygons: vtk4.0
element vertex 958
property float x
property float y
property float z
property uchar red
property uchar green
property uchar blue
element face 1748
property list uchar int vertex_indices
end_header
0 -6.00164 -10 59 76 192 
1 -6.00921 -10 59 76 192 
1.05984 -6 -10 59 76 192 
2 -5.72142 -10 59 76 192 
2 -6 -9.65652 59 76 192 
3 -5.11866 -10 59 76 192 
2 -4.27434 -10 59 76 192 
3.13838 -5 -10 59 76 192 
3 -4.88917 -10 59 76 192 
0 -3.84086 -10 59 76 192 
1.2075 -4 -10 59 76 192 
1 -3.84732 -10 59 76 192 
2 -4 -9.69291 59 76 192 
0 -2.73659 -10 59 76 192 
0 -3 -9.60679 59 76 192 
1 -2.73015 -10 59 76 192 
1 -3 -9.59098 59 76 192 
2 -2.47894 -10 59 76 192 
2 -3 -9.173 59 76 192 
3 -2.00538 -10 59 76 192 
3.00835 -2 -10 59 76 192 
4 -1.1292 -10 59 76 192 
4.12548 -1 -10 59 76 192 
4 -0.873152 -10 59 76 192 
0 0.967152 -10 59 76 192 
1 0.953596 -10 59 76 192 
2 0.620651 -10 59 76 192 
3.00933 0 -10 59 76 192 
3 0.00769234 -10 59 76 192 
0 1.04687 -10 59 76 192 
0 1 -9.96294 59 76 192 
1 1.06593 -10 59 76 192 
1 1 -9.94671 59 76 192 
2 1.53244 -10 59 76 192 
2 1 -9.54074 59 76 192 
2.55653 2 -10 59 76 192 
3 2.29132 -10 59 76 192 
3 2 -9.64302 59 76 192 
3.82626 3 -10 59 76 192 
3 3.71691 -10 59 76 192 
4 3 -9.7881 59 76 192 
0 4.39897 -10 59 76 192 
1 4.39957 -10 59 76 192 
2.54224 4 -10 59 76 192 
2 4.20345 -10 59 76 192 
3 4 -9.63792 59 76 192 
0 6.97767 -10 59 76 192 
1 6.95193 -10 59 76 192 
0 7.02262 -10 59 76 192 
1.16934 7 -10 59 76 192 
1 7.04981 -10 59 76 192 
2 7 -9.70931 59 76 192 
0 -6.44069 -9 59 76 192 
1 -6.44254 -9 59 76 192 
2 -6.27394 -9 59 76 192 
2.83505 -6 -9 59 76 192 
3 -5.8946 -9 59 76 192 
3 -6 -8.30054 59 76 192 
3.97557 -5 -9 59 76 192 
3 -4.10362 -9 59 76 192 
4 -5 -8.77058 59 76 192 
2.85639 -4 -9 59 76 192 
3 -4 -8.52805 59 76 192 
2.21183 -3 -9 59 76 192 
3 -2.59414 -9 59 76 192 
3.84142 -2 -9 59 76 192 
4 -1.84692 -9 59 76 192 
4 -2 -8.00385 59 76 192 
4.75209 -1 -9 59 76 192 
4 -0.157703 -9 59 76 192 
3.83928 0 -9 59 76 192 
3 0.765074 -9 59 76 192 
4 0 -8.04622 59 76 192 
2.65536 1 -9 59 76 192 
3 1.32941 -9 59 76 192 
3 1 -8.01484 59 76 192 
3.53621 2 -9 59 76 192 
4 2.45024 -9 59 76 192 
4.50614 3 -9 59 76 192 
4 3.56695 -9 59 76 192 
0 4.92774 -9 59 76 192 
1 4.92119 -9 59 76 192 
2 4.70815 -9 59 76 192 
3.53804 4 -9 59 76 192 
3 4.30292 -9 59 76 192 
0 5 -8.60148 59 76 192 
1 5 -8.54445 59 76 192 
0 6.04535 -9 59 76 192 
0 6 -8.85619 59 76 192 
1 6.0461 -9 59 76 192 
1 6 -8.84335 59 76 192 
2 6.41372 -9 59 76 192 
0 7.86503 -9 59 76 192 
1 7.88572 -9 59 76 192 
2.92084 7 -9 59 76 192 
2 7.58411 -9 59 76 192 
3 7 -8.57404 59 76 192 
0 8 -8.25639 59 76 192 
1 8 -8.32707 59 76 192 
0 -9 -7.64138 59 76 192 
1 -9 -7.66019 59 76 192 
2 -9 -7.33515 59 76 192 
0 -6.56692 -8 59 76 192 
0 -7 -7.14764 59 76 192 
1 -6.56207 -8 59 76 192 
1 -7 -7.13154 59 76 192 
2 -6.37767 -8 59 76 192 
3 -6.02334 -8 59 76 192 
3.04778 -6 -8 59 76 192 
4 -5.07695 -8 59 76 192 
4.06501 -5 -8 59 76 192 
4 -4.92602 -8 59 76 192 
3.10941 -4 -8 59 76 192 
3 -3.7498 -8 59 76 192 
2.58163 -3 -8 59 76 192 
3 -2.76511 -8 59 76 192 
3 -3 -7.66983 59 76 192 
4 -2.00044 -8 59 76 192 
4.00049 -2 -8 59 76 192 
4.82099 -1 -8 59 76 192 
5 -1 -7.7321 59 76 192 
4.00621 0 -8 59 76 192 
4 0.00711456 -8 59 76 192 
3.00356 1 -8 59 76 192 
3.72233 2 -8 59 76 192 
4 2.30033 -8 59 76 192 
4 2 -7.67782 59 76 192 
4.58041 3 -8 59 76 192 
4 3.69532 -8 59 76 192 
5 3 -7.38278 59 76 192 
2 4.8595 -8 59 76 192 
3.69744 4 -8 59 76 192 
3 4.42313 -8 59 76 192 
4 4 -7.65812 59 76 192 
1.39989 5 -8 59 76 192 
2 5 -7.76456 59 76 192 
1.5747 6 -8 59 76 192 
2 6.18652 -8 59 76 192 
2 6 -7.83961 59 76 192 
3 6.93263 -8 59 76 192 
3 6 -7.09205 59 76 192 
2 7.73257 -8 59 76 192 
3.0714 7 -8 59 76 192 
3 7.06827 -8 59 76 192 
4 7 -7.0306 59 76 192 
0 8.02095 -8 59 76 192 
1.16982 8 -8 59 76 192 
1 8.02486 -8 59 76 192 
2 8 -7.72013 59 76 192 
3 8 -7.02212 59 76 192 
0 -9.65278 -7 59 76 192 
0 -10 -6.55867 59 76 192 
1 -9.67431 -7 59 76 192 
1 -10 -6.58701 59 76 192 
2 -9.34603 -7 59 76 192 
2 -10 -6.17667 59 76 192 
0 -8.21413 -7 59 76 192 
1 -8.21618 -7 59 76 192 
2.50364 -9 -7 59 76 192 
2 -8.63629 -7 59 76 192 
3 -9 -6.56919 59 76 192 
0 -7.48406 -7 59 76 192 
0 -8 -6.80124 59 76 192 
1 -7.44498 -7 59 76 192 
1 -8 -6.79252 59 76 192 
2 -8 -6.32796 59 76 192 
1.34277 -7 -7 59 76 192 
2 -6.87338 -7 59 76 192 
2 -7 -6.68453 59 76 192 
3 -6.50806 -7 59 76 192 
3.97719 -6 -7 59 76 192 
4 -5.97672 -7 59 76 192 
4 -6 -6.96745 59 76 192 
4.78691 -5 -7 59 76 192 
4 -4.00597 -7 59 76 192 
5 -5 -6.59722 59 76 192 
3.99485 -4 -7 59 76 192 
4 -4 -6.99236 59 76 192 
3.59035 -3 -7 59 76 192 
4 -2.66603 -7 59 76 192 
4 -3 -6.38507 59 76 192 
4.69747 -2 -7 59 76 192 
5 -1.60308 -7 59 76 192 
5 -2 -6.40631 59 76 192 
5.43696 -1 -7 59 76 192 
5 -0.401893 -7 59 76 192 
4.69747 0 -7 59 76 192 
4 0.860744 -7 59 76 192 
5 0 -6.40224 59 76 192 
3.87076 1 -7 59 76 192 
4 1.19604 -7 59 76 192 
4 1 -6.80326 59 76 192 
4.47246 2 -7 59 76 192 
5 2.69223 -7 59 76 192 
5.23208 3 -7 59 76 192 
5 3.32003 -7 59 76 192 
3 4.99433 -7 59 76 192 
4.46965 4 -7 59 76 192 
4 4.35839 -7 59 76 192 
2.98779 5 -7 59 76 192 
3 5.10221 -7 59 76 192 
3 5 -6.98787 59 76 192 
3.0859 6 -7 59 76 192 
4 6.97325 -7 59 76 192 
4.02342 7 -7 59 76 192 
4 7.0291 -7 59 76 192 
0 8.46413 -7 59 76 192 
1 8.46505 -7 59 76 192 
2 8.31124 -7 59 76 192 
3.02205 8 -7 59 76 192 
3 8.00925 -7 59 76 192 
2.21192 -10 -6 59 76 192 
3 -9.46334 -6 59 76 192 
3.44876 -9 -6 59 76 192 
3 -8.53947 -6 59 76 192 
2.35885 -8 -6 59 76 192 
2.72394 -7 -6 59 76 192 
3 -6.89416 -6 59 76 192 
4 -6.35962 -6 59 76 192 
4.55171 -6 -6 59 76 192 
5 -5.4109 -6 59 76 192 
5.28458 -5 -6 59 76 192 
5 -4.6162 -6 59 76 192 
4.54749 -4 -6 59 76 192 
4.21012 -3 -6 59 76 192 
5 -2.20095 -6 59 76 192 
5.18721 -2 -6 59 76 192 
5.86806 -1 -6 59 76 192 
5.1842 0 -6 59 76 192 
5 0.252289 -6 59 76 192 
4.43298 1 -6 59 76 192 
4.98319 2 -6 59 76 192 
5 2.02386 -6 59 76 192 
5.68181 3 -6 59 76 192 
5 3.98748 -6 59 76 192 
4.99072 4 -6 59 76 192 
4 4.79742 -6 59 76 192 
3.69883 5 -6 59 76 192 
3.8013 6 -6 59 76 192 
4 6.23477 -6 59 76 192 
4.60533 7 -6 59 76 192 
4 7.77545 -6 59 76 192 
0 8.81537 -6 59 76 192 
1 8.81359 -6 59 76 192 
2 8.65499 -6 59 76 192 
3.78142 8 -6 59 76 192 
3 8.34571 -6 59 76 192 
2.02831 -10 -5 59 76 192 
3 -9.32265 -5 59 76 192 
3.30725 -9 -5 59 76 192 
3 -8.64954 -5 59 76 192 
2.30826 -8 -5 59 76 192 
3 -8 -4.1337 59 76 192 
2.70047 -7 -5 59 76 192 
3 -6.87951 -5 59 76 192 
3 -7 -4.61011 59 76 192 
4 -6.31956 -5 59 76 192 
4.4698 -6 -5 59 76 192 
5 -5.27828 -5 59 76 192 
5.18644 -5 -5 59 76 192 
5 -4.7295 -5 59 76 192 
4.50295 -4 -5 59 76 192 
4.19631 -3 -5 59 76 192 
5 -2.14589 -5 59 76 192 
5.12961 -2 -5 59 76 192 
5.77872 -1 -5 59 76 192 
6 -1 -4.3015 59 76 192 
5.13308 0 -5 59 76 192 
5 0.192216 -5 59 76 192 
4.42012 1 -5 59 76 192 
4.93503 2 -5 59 76 192 
5 2.09867 -5 59 76 192 
5 2 -4.82747 59 76 192 
5.58963 3 -5 59 76 192 
5 3.88962 -5 59 76 192 
4.92165 4 -5 59 76 192 
4 4.77552 -5 59 76 192 
5 4 -4.79688 59 76 192 
3.68153 5 -5 59 76 192 
4 5 -4.36578 59 76 192 
3.75426 6 -5 59 76 192 
4 6.31785 -5 59 76 192 
4 6 -4.52201 59 76 192 
4.49407 7 -5 59 76 192 
4 7.64874 -5 59 76 192 
0 8.80867 -5 59 76 192 
1 8.80253 -5 59 76 192 
2 8.63376 -5 59 76 192 
3.66746 8 -5 59 76 192 
3 8.30838 -5 59 76 192 
4 8 -4.39351 59 76 192 
0 9 -4.30961 59 76 192 
1 9 -4.28301 59 76 192 
2.91806 -10 -4 59 76 192 
3 -9.94183 -4 59 76 192 
3 -10 -3.91284 59 76 192 
3.88511 -9 -4 59 76 192 
4 -9 -3.81326 59 76 192 
3.07621 -8 -4 59 76 192 
3.33661 -7 -4 59 76 192 
4 -6.61809 -4 59 76 192 
4.878 -6 -4 59 76 192 
5 -5.82919 -4 59 76 192 
5 -6 -3.7168 59 76 192 
5.54096 -5 -4 59 76 192 
5 -4.16595 -4 59 76 192 
4.89375 -4 -4 59 76 192 
5 -4 -3.73842 59 76 192 
4.59586 -3 -4 59 76 192 
5 -2.55298 -4 59 76 192 
5.47267 -2 -4 59 76 192 
6 -1.14949 -4 59 76 192 
6.09526 -1 -4 59 76 192 
6 -0.852844 -4 59 76 192 
5.47349 0 -4 59 76 192 
5 0.714221 -4 59 76 192 
4.80382 1 -4 59 76 192 
5 1.40111 -4 59 76 192 
5 1 -3.49619 59 76 192 
5.2886 2 -4 59 76 192 
5.91561 3 -4 59 76 192 
6 3 -3.75911 59 76 192 
5.28414 4 -4 59 76 192 
5 4.26648 -4 59 76 192 
4.15386 5 -4 59 76 192 
4.22427 6 -4 59 76 192 
4.91245 7 -4 59 76 192 
5 7 -3.80468 59 76 192 
2 8.90557 -4 59 76 192 
3 8.57662 -4 59 76 192 
4.17908 8 -4 59 76 192 
4 8.10262 -4 59 76 192 
0 9.28019 -4 59 76 192 
1.45347 9 -4 59 76 192 
1 9.25911 -4 59 76 192 
2 9 -3.67331 59 76 192 
0 10 -3.22242 59 76 192 
1 10 -3.21184 59 76 192 
3.61172 -10 -3 59 76 192 
4 -9.57925 -3 59 76 192 
4.41872 -9 -3 59 76 192 
4 -8.42875 -3 59 76 192 
3.67063 -8 -3 59 76 192 
3.89531 -7 -3 59 76 192 
4 -6.93802 -3 59 76 192 
5 -6.22587 -3 59 76 192 
5.28776 -6 -3 59 76 192 
5.9116 -5 -3 59 76 192 
5.28045 -4 -3 59 76 192 
5 -3.02018 -3 59 76 192 
4.99425 -3 -3 59 76 192 
5 -2.99344 -3 59 76 192 
5.82419 -2 -3 59 76 192 
6 -1.70737 -3 59 76 192 
6.4372 -1 -3 59 76 192 
6 -0.300392 -3 59 76 192 
5.82115 0 -3 59 76 192 
5.18107 1 -3 59 76 192 
5.64646 2 -3 59 76 192 
6 2.58535 -3 59 76 192 
6.26786 3 -3 59 76 192 
6 3.4347 -3 59 76 192 
5.65415 4 -3 59 76 192 
5 4.63066 -3 59 76 192 
4.58603 5 -3 59 76 192 
4.66732 6 -3 59 76 192 
5 6.50572 -3 59 76 192 
5.33534 7 -3 59 76 192 
5 7.5263 -3 59 76 192 
3 8.86341 -3 59 76 192 
4.66158 8 -3 59 76 192 
4 8.3891 -3 59 76 192 
2.59297 9 -3 59 76 192 
2 9.66406 -3 59 76 192 
0 10 -2.45428 59 76 192 
1.3795 10 -3 59 76 192 
1 10 -2.49385 59 76 192 
3.26549 -10 -2 59 76 192 
4 -9.19793 -2 59 76 192 
4.1422 -9 -2 59 76 192 
4 -8.79693 -2 59 76 192 
3.41575 -8 -2 59 76 192 
3.66774 -7 -2 59 76 192 
4 -6.79937 -2 59 76 192 
5 -6.06614 -2 59 76 192 
5.0827 -6 -2 59 76 192 
5.70842 -5 -2 59 76 192 
5.10634 -4 -2 59 76 192 
5 -3.61285 -2 59 76 192 
4.83262 -3 -2 59 76 192 
5 -2.80482 -2 59 76 192 
5.65369 -2 -2 59 76 192 
6 -1.41048 -2 59 76 192 
6.24825 -1 -2 59 76 192 
6 -0.592625 -2 59 76 192 
5.65617 0 -2 59 76 192 
5.03056 1 -2 59 76 192 
5.48035 2 -2 59 76 192 
6 2.88593 -2 59 76 192 
6.07162 3 -2 59 76 192 
6 3.11838 -2 59 76 192 
5.47081 4 -2 59 76 192 
5 4.46289 -2 59 76 192 
4.41014 5 -2 59 76 192 
4.47114 6 -2 59 76 192 
5 6.83562 -2 59 76 192 
5.10738 7 -2 59 76 192 
5 7.17032 -2 59 76 192 
3 8.73761 -2 59 76 192 
4.41407 8 -2 59 76 192 
4 8.24805 -2 59 76 192 
0 9.84082 -2 59 76 192 
1 9.81962 -2 59 76 192 
2.23429 9 -2 59 76 192 
2 9.26187 -2 59 76 192 
0 10 -1.43507 59 76 192 
1 10 -1.36709 59 76 192 
3.46453 -10 -1 59 76 192 
4 -9.41263 -1 59 76 192 
4.29536 -9 -1 59 76 192 
4 -8.5663 -1 59 76 192 
3.59649 -8 -1 59 76 192 
4 -8 -0.0338653 59 76 192 
3.83876 -7 -1 59 76 192 
4 -6.90148 -1 59 76 192 
4 -7 -0.584162 59 76 192 
5 -6.16483 -1 59 76 192 
5.20382 -6 -1 59 76 192 
5.81769 -5 -1 59 76 192 
6 -5 -0.359821 59 76 192 
5.22263 -4 -1 59 76 192 
5 -3.16898 -1 59 76 192 
4.95501 -3 -1 59 76 192 
5 -2.94684 -1 59 76 192 
5 -3 -0.837775 59 76 192 
5.75934 -2 -1 59 76 192 
6 -1.58479 -1 59 76 192 
6 -2 -0.0686119 59 76 192 
6.34909 -1 -1 59 76 192 
6 -0.418406 -1 59 76 192 
5.76099 0 -1 59 76 192 
6 0 -0.0578033 59 76 192 
5.14491 1 -1 59 76 192 
5.58858 2 -1 59 76 192 
6 2.71386 -1 59 76 192 
6.17659 3 -1 59 76 192 
6 3.29509 -1 59 76 192 
5.58166 4 -1 59 76 192 
5 4.57862 -1 59 76 192 
4.54283 5 -1 59 76 192 
4.60573 6 -1 59 76 192 
5 6.63774 -1 59 76 192 
5.23129 7 -1 59 76 192 
5 7.36916 -1 59 76 192 
3 8.82873 -1 59 76 192 
4.55753 8 -1 59 76 192 
4 8.33766 -1 59 76 192 
2.50637 9 -1 59 76 192 
2 9.56535 -1 59 76 192 
3 9 -0.193755 59 76 192 
1.20285 10 -1 59 76 192 
2 10 -0.36445 59 76 192 
3.96585 -10 0 59 76 192 
4 -9.96249 0 59 76 192 
4.68812 -9 0 59 76 192 
4.01231 -8 0 59 76 192 
4 -8 0.0338653 59 76 192 
4.19777 -7 0 59 76 192 
4 -7 0.584162 59 76 192 
5 -6.41077 0 59 76 192 
5.50604 -6 0 59 76 192 
6 -5.17905 0 59 76 192 
6.10624 -5 0 59 76 192 
6 -4.83734 0 59 76 192 
6 -5 0.359821 59 76 192 
5.49828 -4 0 59 76 192 
5.2246 -3 0 59 76 192 
5 -3 0.837775 59 76 192 
6 -2.02279 0 59 76 192 
6.01844 -2 0 59 76 192 
6 -2 0.0686119 59 76 192 
6.61254 -1 0 59 76 192 
6.01526 0 0 59 76 192 
6 0.0239622 0 59 76 192 
6 0 0.0578033 59 76 192 
5.40274 1 0 59 76 192 
5.84774 2 0 59 76 192 
6 2.26576 0 59 76 192 
6.45054 3 0 59 76 192 
6 3.75561 0 59 76 192 
5.85551 4 0 59 76 192 
5 4.85436 0 59 76 192 
4.84262 5 0 59 76 192 
4.92111 6 0 59 76 192 
5 6.12862 0 59 76 192 
5.55208 7 0 59 76 192 
5 7.88301 0 59 76 192 
4.91813 8 0 59 76 192 
4 8.55808 0 59 76 192 
3.08871 9 0 59 76 192 
3 9.14925 0 59 76 192 
3 9 0.193755 59 76 192 
2.2482 10 0 59 76 192 
2 10 0.36445 59 76 192 
3.46453 -10 1 59 76 192 
4 -9.41263 1 59 76 192 
4.29536 -9 1 59 76 192 
4 -8.5663 1 59 76 192 
3.59649 -8 1 59 76 192 
3.83876 -7 1 59 76 192 
4 -6.90148 1 59 76 192 
5 -6.16483 1 59 76 192 
5.20382 -6 1 59 76 192 
5.81769 -5 1 59 76 192 
5.22263 -4 1 59 76 192 
5 -3.16898 1 59 76 192 
4.95501 -3 1 59 76 192 
5 -2.94684 1 59 76 192 
5.75934 -2 1 59 76 192 
6 -1.58479 1 59 76 192 
6.34909 -1 1 59 76 192 
6 -0.418406 1 59 76 192 
5.76099 0 1 59 76 192 
5.14491 1 1 59 76 192 
5.58858 2 1 59 76 192 
6 2.71386 1 59 76 192 
6.17659 3 1 59 76 192 
6 3.29509 1 59 76 192 
5.58166 4 1 59 76 192 
5 4.57862 1 59 76 192 
4.54283 5 1 59 76 192 
4.60573 6 1 59 76 192 
5 6.63774 1 59 76 192 
5.23129 7 1 59 76 192 
5 7.36916 1 59 76 192 
3 8.82873 1 59 76 192 
4.55753 8 1 59 76 192 
4 8.33766 1 59 76 192 
2.50637 9 1 59 76 192 
2 9.56535 1 59 76 192 
0 10 1.43507 59 76 192 
1.20285 10 1 59 76 192 
1 10 1.36709 59 76 192 
3.26549 -10 2 59 76 192 
4 -9.19793 2 59 76 192 
4.1422 -9 2 59 76 192 
4 -8.79693 2 59 76 192 
3.41575 -8 2 59 76 192 
3.66774 -7 2 59 76 192 
4 -6.79937 2 59 76 192 
5 -6.06614 2 59 76 192 
5.0827 -6 2 59 76 192 
5.70842 -5 2 59 76 192 
5.10634 -4 2 59 76 192 
5 -3.61285 2 59 76 192 
4.83262 -3 2 59 76 192 
5 -2.80482 2 59 76 192 
5.65369 -2 2 59 76 192 
6 -1.41048 2 59 76 192 
6.24825 -1 2 59 76 192 
6 -0.592625 2 59 76 192 
5.65617 0 2 59 76 192 
5.03056 1 2 59 76 192 
5.48035 2 2 59 76 192 
6 2.88593 2 59 76 192 
6.07162 3 2 59 76 192 
6 3.11838 2 59 76 192 
5.47081 4 2 59 76 192 
5 4.46289 2 59 76 192 
4.41014 5 2 59 76 192 
4.47114 6 2 59 76 192 
5 6.83562 2 59 76 192 
5.10738 7 2 59 76 192 
5 7.17032 2 59 76 192 
3 8.73761 2 59 76 192 
4.41407 8 2 59 76 192 
4 8.24805 2 59 76 192 
0 9.84082 2 59 76 192 
1 9.81962 2 59 76 192 
2.23429 9 2 59 76 192 
2 9.26187 2 59 76 192 
0 10 2.45428 59 76 192 
1 10 2.49385 59 76 192 
3.61172 -10 3 59 76 192 
3 -10 3.91284 59 76 192 
4 -9.57925 3 59 76 192 
4.41872 -9 3 59 76 192 
4 -8.42875 3 59 76 192 
4 -9 3.81326 59 76 192 
3.67063 -8 3 59 76 192 
3.89531 -7 3 59 76 192 
4 -6.93802 3 59 76 192 
5 -6.22587 3 59 76 192 
5.28776 -6 3 59 76 192 
5 -6 3.7168 59 76 192 
5.9116 -5 3 59 76 192 
5.28045 -4 3 59 76 192 
5 -3.02018 3 59 76 192 
5 -4 3.73842 59 76 192 
4.99425 -3 3 59 76 192 
5 -2.99344 3 59 76 192 
5.82419 -2 3 59 76 192 
6 -1.70737 3 59 76 192 
6.4372 -1 3 59 76 192 
6 -0.300392 3 59 76 192 
5.82115 0 3 59 76 192 
5.18107 1 3 59 76 192 
5 1 3.49619 59 76 192 
5.64646 2 3 59 76 192 
6 2.58535 3 59 76 192 
6.26786 3 3 59 76 192 
6 3.4347 3 59 76 192 
6 3 3.75911 59 76 192 
5.65415 4 3 59 76 192 
5 4.63066 3 59 76 192 
4.58603 5 3 59 76 192 
4.66732 6 3 59 76 192 
5 6.50572 3 59 76 192 
5.33534 7 3 59 76 192 
5 7.5263 3 59 76 192 
5 7 3.80468 59 76 192 
3 8.86341 3 59 76 192 
4.66158 8 3 59 76 192 
4 8.3891 3 59 76 192 
2.59297 9 3 59 76 192 
2 9.66406 3 59 76 192 
2 9 3.67331 59 76 192 
0 10 3.22242 59 76 192 
1.3795 10 3 59 76 192 
1 10 3.21184 59 76 192 
2.91806 -10 4 59 76 192 
3 -9.94183 4 59 76 192 
3.88511 -9 4 59 76 192 
3.07621 -8 4 59 76 192 
3 -8 4.1337 59 76 192 
3.33661 -7 4 59 76 192 
3 -7 4.61011 59 76 192 
4 -6.61809 4 59 76 192 
4.878 -6 4 59 76 192 
5 -5.82919 4 59 76 192 
5.54096 -5 4 59 76 192 
5 -4.16595 4 59 76 192 
4.89375 -4 4 59 76 192 
4.59586 -3 4 59 76 192 
5 -2.55298 4 59 76 192 
5.47267 -2 4 59 76 192 
6 -1.14949 4 59 76 192 
6.09526 -1 4 59 76 192 
6 -0.852844 4 59 76 192 
6 -1 4.3015 59 76 192 
5.47349 0 4 59 76 192 
5 0.714221 4 59 76 192 
4.80382 1 4 59 76 192 
5 1.40111 4 59 76 192 
5.2886 2 4 59 76 192 
5 2 4.82747 59 76 192 
5.91561 3 4 59 76 192 
5.28414 4 4 59 76 192 
5 4.26648 4 59 76 192 
5 4 4.79688 59 76 192 
4.15386 5 4 59 76 192 
4 5 4.36578 59 76 192 
4.22427 6 4 59 76 192 
4 6 4.52201 59 76 192 
4.91245 7 4 59 76 192 
2 8.90557 4 59 76 192 
3 8.57662 4 59 76 192 
4.17908 8 4 59 76 192 
4 8.10262 4 59 76 192 
4 8 4.39351 59 76 192 
0 9.28019 4 59 76 192 
0 9 4.30961 59 76 192 
1.45347 9 4 59 76 192 
1 9.25911 4 59 76 192 
1 9 4.28301 59 76 192 
2.02831 -10 5 59 76 192 
3 -9.32265 5 59 76 192 
3.30725 -9 5 59 76 192 
3 -8.64954 5 59 76 192 
2.30826 -8 5 59 76 192 
2.70047 -7 5 59 76 192 
3 -6.87951 5 59 76 192 
4 -6.31956 5 59 76 192 
4.4698 -6 5 59 76 192 
5 -5.27828 5 59 76 192 
5.18644 -5 5 59 76 192 
5 -4.7295 5 59 76 192 
4.50295 -4 5 59 76 192 
4.19631 -3 5 59 76 192 
5 -2.14589 5 59 76 192 
5.12961 -2 5 59 76 192 
5.77872 -1 5 59 76 192 
5.13308 0 5 59 76 192 
5 0.192216 5 59 76 192 
4.42012 1 5 59 76 192 
4.93503 2 5 59 76 192 
5 2.09867 5 59 76 192 
5.58963 3 5 59 76 192 
5 3.88962 5 59 76 192 
4.92165 4 5 59 76 192 
4 4.77552 5 59 76 192 
3.68153 5 5 59 76 192 
3.75426 6 5 59 76 192 
4 6.31785 5 59 76 192 
4.49407 7 5 59 76 192 
4 7.64874 5 59 76 192 
0 8.80867 5 59 76 192 
1 8.80253 5 59 76 192 
2 8.63376 5 59 76 192 
3.66746 8 5 59 76 192 
3 8.30838 5 59 76 192 
0 -10 6.55867 59 76 192 
1 -10 6.58701 59 76 192 
2.21192 -10 6 59 76 192 
2 -10 6.17667 59 76 192 
3 -9.46334 6 59 76 192 
3.44876 -9 6 59 76 192 
3 -8.53947 6 59 76 192 
3 -9 6.56919 59 76 192 
0 -8 6.80124 59 76 192 
1 -8 6.79252 59 76 192 
2.35885 -8 6 59 76 192 
2 -8 6.32796 59 76 192 
2.72394 -7 6 59 76 192 
2 -7 6.68453 59 76 192 
3 -6.89416 6 59 76 192 
4 -6.35962 6 59 76 192 
4.55171 -6 6 59 76 192 
4 -6 6.96745 59 76 192 
5 -5.4109 6 59 76 192 
5.28458 -5 6 59 76 192 
5 -4.6162 6 59 76 192 
5 -5 6.59722 59 76 192 
4.54749 -4 6 59 76 192 
4 -4 6.99236 59 76 192 
4.21012 -3 6 59 76 192 
4 -3 6.38507 59 76 192 
5 -2.20095 6 59 76 192 
5.18721 -2 6 59 76 192 
5 -2 6.40631 59 76 192 
5.86806 -1 6 59 76 192 
5.1842 0 6 59 76 192 
5 0.252289 6 59 76 192 
5 0 6.40224 59 76 192 
4.43298 1 6 59 76 192 
4 1 6.80326 59 76 192 
4.98319 2 6 59 76 192 
5 2.02386 6 59 76 192 
5.68181 3 6 59 76 192 
5 3.98748 6 59 76 192 
4.99072 4 6 59 76 192 
4 4.79742 6 59 76 192 
3.69883 5 6 59 76 192 
3 5 6.98787 59 76 192 
3.8013 6 6 59 76 192 
4 6.23477 6 59 76 192 
4.60533 7 6 59 76 192 
4 7.77545 6 59 76 192 
0 8.81537 6 59 76 192 
1 8.81359 6 59 76 192 
2 8.65499 6 59 76 192 
3.78142 8 6 59 76 192 
3 8.34571 6 59 76 192 
0 -9.65278 7 59 76 192 
1 -9.67431 7 59 76 192 
2 -9.34603 7 59 76 192 
0 -8.21413 7 59 76 192 
0 -9 7.64138 59 76 192 
1 -8.21618 7 59 76 192 
1 -9 7.66019 59 76 192 
2.50364 -9 7 59 76 192 
2 -8.63629 7 59 76 192 
2 -9 7.33515 59 76 192 
0 -7.48406 7 59 76 192 
1 -7.44498 7 59 76 192 
0 -7 7.14764 59 76 192 
1.34277 -7 7 59 76 192 
1 -7 7.13154 59 76 192 
2 -6.87338 7 59 76 192 
3 -6.50806 7 59 76 192 
3.97719 -6 7 59 76 192 
4 -5.97672 7 59 76 192 
4.78691 -5 7 59 76 192 
4 -4.00597 7 59 76 192 
3.99485 -4 7 59 76 192 
3.59035 -3 7 59 76 192 
3 -3 7.66983 59 76 192 
4 -2.66603 7 59 76 192 
4.69747 -2 7 59 76 192 
5 -1.60308 7 59 76 192 
5.43696 -1 7 59 76 192 
5 -0.401893 7 59 76 192 
5 -1 7.7321 59 76 192 
4.69747 0 7 59 76 192 
4 0.860744 7 59 76 192 
3.87076 1 7 59 76 192 
4 1.19604 7 59 76 192 
4.47246 2 7 59 76 192 
4 2 7.67782 59 76 192 
5 2.69223 7 59 76 192 
5.23208 3 7 59 76 192 
5 3.32003 7 59 76 192 
5 3 7.38278 59 76 192 
3 4.99433 7 59 76 192 
4.46965 4 7 59 76 192 
4 4.35839 7 59 76 192 
4 4 7.65812 59 76 192 
2.98779 5 7 59 76 192 
2 5 7.76456 59 76 192 
3 5.10221 7 59 76 192 
2 6 7.83961 59 76 192 
3.0859 6 7 59 76 192 
3 6 7.09205 59 76 192 
4 6.97325 7 59 76 192 
4.02342 7 7 59 76 192 
4 7.0291 7 59 76 192 
4 7 7.0306 59 76 192 
0 8.46413 7 59 76 192 
1 8.46505 7 59 76 192 
2 8.31124 7 59 76 192 
2 8 7.72013 59 76 192 
3.02205 8 7 59 76 192 
3 8.00925 7 59 76 192 
3 8 7.02212 59 76 192 
0 -6.56692 8 59 76 192 
1 -6.56207 8 59 76 192 
2 -6.37767 8 59 76 192 
3 -6.02334 8 59 76 192 
3.04778 -6 8 59 76 192 
3 -6 8.30054 59 76 192 
4 -5.07695 8 59 76 192 
4.06501 -5 8 59 76 192 
4 -4.92602 8 59 76 192 
4 -5 8.77058 59 76 192 
3.10941 -4 8 59 76 192 
3 -3.7498 8 59 76 192 
3 -4 8.52805 59 76 192 
2.58163 -3 8 59 76 192 
3 -2.76511 8 59 76 192 
4 -2.00044 8 59 76 192 
4.00049 -2 8 59 76 192 
4 -2 8.00385 59 76 192 
4.82099 -1 8 59 76 192 
4.00621 0 8 59 76 192 
4 0.00711456 8 59 76 192 
4 0 8.04622 59 76 192 
3.00356 1 8 59 76 192 
3 1 8.01484 59 76 192 
3.72233 2 8 59 76 192 
4 2.30033 8 59 76 192 
4.58041 3 8 59 76 192 
4 3.69532 8 59 76 192 
2 4.8595 8 59 76 192 
3.69744 4 8 59 76 192 
3 4.42313 8 59 76 192 
0 5 8.60148 59 76 192 
1.39989 5 8 59 76 192 
1 5 8.54445 59 76 192 
0 6 8.85619 59 76 192 
1.5747 6 8 59 76 192 
1 6 8.84335 59 76 192 
2 6.18652 8 59 76 192 
3 6.93263 8 59 76 192 
2 7.73257 8 59 76 192 
3.0714 7 8 59 76 192 
3 7.06827 8 59 76 192 
3 7 8.57404 59 76 192 
0 8.02095 8 59 76 192 
0 8 8.25639 59 76 192 
1.16982 8 8 59 76 192 
1 8.02486 8 59 76 192 
1 8 8.32707 59 76 192 
0 -6.44069 9 59 76 192 
1 -6.44254 9 59 76 192 
2 -6.27394 9 59 76 192 
2.83505 -6 9 59 76 192 
2 -6 9.65652 59 76 192 
3 -5.8946 9 59 76 192 
3.97557 -5 9 59 76 192 
3 -4.10362 9 59 76 192 
2.85639 -4 9 59 76 192 
2 -4 9.69291 59 76 192 
0 -3 9.60679 59 76 192 
1 -3 9.59098 59 76 192 
2.21183 -3 9 59 76 192 
2 -3 9.173 59 76 192 
3 -2.59414 9 59 76 192 
3.84142 -2 9 59 76 192 
4 -1.84692 9 59 76 192 
4.75209 -1 9 59 76 192 
4 -0.157703 9 59 76 192 
3.83928 0 9 59 76 192 
3 0.765074 9 59 76 192 
0 1 9.96294 59 76 192 
1 1 9.94671 59 76 192 
2.65536 1 9 59 76 192 
2 1 9.54074 59 76 192 
3 1.32941 9 59 76 192 
3.53621 2 9 59 76 192 
3 2 9.64302 59 76 192 
4 2.45024 9 59 76 192 
4.50614 3 9 59 76 192 
4 3.56695 9 59 76 192 
4 3 9.7881 59 76 192 
0 4.92774 9 59 76 192 
1 4.92119 9 59 76 192 
2 4.70815 9 59 76 192 
3.53804 4 9 59 76 192 
3 4.30292 9 59 76 192 
3 4 9.63792 59 76 192 
0 6.04535 9 59 76 192 
1 6.0461 9 59 76 192 
2 6.41372 9 59 76 192 
0 7.86503 9 59 76 192 
1 7.88572 9 59 76 192 
2.92084 7 9 59 76 192 
2 7.58411 9 59 76 192 
2 7 9.70931 59 76 192 
0 -6.00164 10 59 76 192 
1 -6.00921 10 59 76 192 
1.05984 -6 10 59 76 192 
2 -5.72142 10 59 76 192 
3 -5.11866 10 59 76 192 
2 -4.27434 10 59 76 192 
3.13838 -5 10 59 76 192 
3 -4.88917 10 59 76 192 
0 -3.84086 10 59 76 192 
1.2075 -4 10 59 76 192 
1 -3.84732 10 59 76 192 
0 -2.73659 10 59 76 192 
1 -2.73015 10 59 76 192 
2 -2.47894 10 59 76 192 
3 -2.00538 10 59 76 192 
3.00835 -2 10 59 76 192 
4 -1.1292 10 59 76 192 
4.12548 -1 10 59 76 192 
4 -0.873152 10 59 76 192 
0 0.967152 10 59 76 192 
1 0.953596 10 59 76 192 
2 0.620651 10 59 76 192 
3.00933 0 10 59 76 192 
3 0.00769234 10 59 76 192 
0 1.04687 10 59 76 192 
1 1.06593 10 59 76 192 
2 1.53244 10 59 76 192 
2.55653 2 10 59 76 192 
3 2.29132 10 59 76 192 
3.82626 3 10 59 76 192 
3 3.71691 10 59 76 192 
0 4.39897 10 59 76 192 
1 4.39957 10 59 76 192 
2.54224 4 10 59 76 192 
2 4.20345 10 59 76 192 
0 6.97767 10 59 76 192 
1 6.95193 10 59 76 192 
0 7.02262 10 59 76 192 
1.16934 7 10 59 76 192 
1 7.04981 10 59 76 192 
3 1 53 0 
3 0 53 52 
3 2 4 54 
3 2 54 1 
3 1 54 53 
3 54 4 55 
3 2 3 4 
3 4 56 55 
3 4 3 56 
3 3 5 56 
3 56 5 7 
3 58 56 7 
3 6 10 12 
3 61 6 12 
3 61 59 6 
3 59 8 6 
3 58 7 8 
3 59 58 8 
3 9 16 11 
3 14 16 9 
3 11 12 10 
3 11 16 12 
3 16 18 12 
3 63 61 12 
3 18 63 12 
3 15 14 13 
3 16 14 15 
3 17 16 15 
3 18 16 17 
3 18 64 63 
3 18 17 64 
3 17 19 64 
3 64 19 20 
3 65 64 20 
3 20 66 65 
3 21 66 20 
3 66 21 22 
3 68 66 22 
3 23 70 69 
3 27 70 23 
3 68 22 23 
3 69 68 23 
3 24 32 25 
3 30 32 24 
3 25 34 26 
3 32 34 25 
3 73 26 34 
3 73 71 26 
3 71 28 26 
3 70 27 28 
3 71 70 28 
3 31 30 29 
3 32 30 31 
3 33 32 31 
3 34 32 33 
3 35 37 74 
3 33 35 74 
3 33 74 73 
3 33 73 34 
3 74 37 76 
3 35 36 37 
3 38 40 77 
3 36 38 77 
3 36 77 76 
3 36 76 37 
3 77 40 78 
3 39 43 45 
3 39 45 83 
3 38 39 83 
3 38 83 79 
3 38 79 40 
3 78 40 79 
3 42 41 81 
3 41 80 81 
3 44 42 82 
3 42 81 82 
3 45 43 44 
3 45 44 84 
3 84 44 82 
3 83 45 84 
3 47 89 46 
3 46 89 87 
3 49 51 91 
3 49 91 47 
3 47 91 89 
3 91 51 94 
3 50 48 93 
3 48 92 93 
3 51 49 50 
3 51 50 95 
3 95 50 93 
3 94 51 95 
3 53 104 52 
3 52 104 102 
3 54 106 53 
3 53 106 104 
3 55 57 107 
3 55 107 54 
3 54 107 106 
3 107 57 108 
3 55 56 57 
3 58 60 109 
3 56 58 109 
3 56 109 108 
3 56 108 57 
3 109 60 110 
3 59 61 62 
3 59 62 112 
3 58 59 112 
3 58 112 111 
3 58 111 60 
3 110 60 111 
3 62 114 113 
3 62 61 114 
3 61 63 114 
3 112 62 113 
3 63 115 114 
3 64 115 63 
3 65 67 117 
3 65 117 64 
3 64 117 115 
3 117 67 118 
3 65 66 67 
3 67 66 68 
3 67 68 118 
3 118 68 119 
3 69 70 72 
3 69 72 121 
3 69 121 68 
3 68 121 119 
3 71 73 75 
3 71 75 123 
3 70 71 123 
3 70 123 122 
3 70 122 72 
3 121 72 122 
3 73 74 75 
3 75 74 76 
3 75 76 123 
3 123 76 124 
3 76 125 124 
3 77 125 76 
3 125 77 78 
3 127 125 78 
3 79 131 128 
3 83 131 79 
3 127 78 79 
3 128 127 79 
3 80 86 81 
3 85 86 80 
3 134 81 86 
3 134 130 81 
3 130 82 81 
3 84 82 132 
3 82 130 132 
3 131 83 84 
3 132 131 84 
3 86 85 90 
3 90 85 88 
3 136 134 86 
3 90 136 86 
3 89 88 87 
3 90 88 89 
3 90 137 136 
3 90 89 137 
3 89 91 137 
3 94 96 139 
3 94 139 91 
3 91 139 137 
3 139 96 142 
3 92 98 93 
3 97 98 92 
3 146 93 98 
3 146 141 93 
3 141 95 93 
3 96 94 95 
3 96 95 143 
3 143 95 141 
3 142 96 143 
3 98 97 145 
3 147 98 145 
3 146 98 147 
3 99 100 152 
3 150 99 152 
3 100 101 154 
3 152 100 154 
3 154 101 158 
3 100 99 156 
3 157 100 156 
3 101 100 157 
3 159 101 157 
3 158 101 159 
3 103 105 163 
3 161 103 163 
3 163 105 166 
3 104 103 102 
3 105 103 104 
3 105 167 166 
3 105 104 167 
3 104 106 167 
3 107 169 106 
3 106 169 167 
3 169 107 108 
3 170 169 108 
3 108 171 170 
3 109 171 108 
3 171 109 110 
3 173 171 110 
3 111 176 174 
3 112 176 111 
3 173 110 111 
3 174 173 111 
3 113 114 116 
3 113 116 178 
3 113 178 112 
3 112 178 176 
3 114 115 116 
3 116 179 178 
3 116 115 179 
3 115 117 179 
3 179 117 118 
3 181 179 118 
3 182 119 120 
3 182 181 119 
3 181 118 119 
3 182 120 184 
3 120 186 185 
3 120 119 186 
3 119 121 186 
3 184 120 185 
3 122 189 187 
3 123 189 122 
3 186 121 122 
3 187 186 122 
3 190 124 126 
3 190 189 124 
3 189 123 124 
3 190 126 192 
3 124 125 126 
3 127 129 193 
3 125 127 193 
3 125 193 192 
3 125 192 126 
3 193 129 194 
3 128 131 133 
3 128 133 197 
3 127 128 197 
3 127 197 195 
3 127 195 129 
3 194 129 195 
3 130 134 135 
3 199 130 135 
3 199 196 130 
3 196 132 130 
3 133 131 132 
3 133 132 198 
3 198 132 196 
3 197 133 198 
3 135 136 138 
3 134 136 135 
3 200 199 135 
3 200 135 140 
3 140 135 138 
3 200 140 202 
3 136 137 138 
3 139 138 137 
3 140 138 139 
3 142 144 203 
3 139 142 203 
3 139 203 202 
3 139 202 140 
3 203 144 204 
3 141 146 148 
3 141 149 143 
3 148 149 141 
3 143 149 209 
3 142 143 209 
3 142 209 205 
3 142 205 144 
3 204 144 205 
3 147 145 207 
3 145 206 207 
3 148 146 147 
3 148 147 208 
3 208 147 207 
3 149 148 208 
3 210 149 208 
3 209 149 210 
3 152 151 150 
3 153 151 152 
3 154 153 152 
3 155 153 154 
3 158 160 212 
3 154 158 212 
3 154 212 211 
3 154 211 155 
3 212 160 213 
3 156 164 157 
3 162 164 156 
3 157 165 159 
3 164 165 157 
3 159 165 215 
3 158 159 215 
3 158 215 214 
3 158 214 160 
3 213 160 214 
3 163 162 161 
3 164 162 163 
3 166 164 163 
3 166 168 164 
3 168 165 164 
3 216 215 165 
3 168 216 165 
3 166 167 168 
3 168 217 216 
3 168 167 217 
3 167 169 217 
3 170 172 218 
3 170 218 169 
3 169 218 217 
3 218 172 219 
3 170 171 172 
3 173 175 220 
3 171 173 220 
3 171 220 219 
3 171 219 172 
3 220 175 221 
3 174 176 177 
3 174 177 223 
3 173 174 223 
3 173 223 222 
3 173 222 175 
3 221 175 222 
3 177 178 180 
3 176 178 177 
3 224 223 177 
3 180 224 177 
3 178 179 180 
3 181 183 225 
3 179 181 225 
3 179 225 224 
3 179 224 180 
3 225 183 226 
3 181 182 183 
3 183 182 184 
3 183 184 226 
3 226 184 227 
3 185 186 188 
3 185 188 228 
3 185 228 184 
3 184 228 227 
3 187 189 191 
3 187 191 230 
3 186 187 230 
3 186 230 229 
3 186 229 188 
3 228 188 229 
3 189 190 191 
3 191 190 192 
3 191 192 230 
3 230 192 231 
3 192 232 231 
3 193 232 192 
3 232 193 194 
3 233 232 194 
3 195 235 234 
3 197 235 195 
3 233 194 195 
3 234 233 195 
3 196 199 201 
3 237 196 201 
3 237 236 196 
3 236 198 196 
3 235 197 198 
3 236 235 198 
3 199 200 201 
3 201 200 202 
3 201 202 237 
3 237 202 238 
3 202 239 238 
3 203 239 202 
3 239 203 204 
3 240 239 204 
3 205 245 241 
3 209 245 205 
3 240 204 205 
3 241 240 205 
3 207 206 243 
3 206 242 243 
3 208 207 244 
3 207 243 244 
3 210 208 246 
3 208 244 246 
3 245 209 210 
3 246 245 210 
3 211 248 247 
3 212 248 211 
3 248 212 213 
3 249 248 213 
3 214 251 250 
3 215 251 214 
3 249 213 214 
3 250 249 214 
3 215 216 251 
3 251 216 253 
3 216 254 253 
3 217 254 216 
3 218 256 217 
3 217 256 254 
3 256 218 219 
3 257 256 219 
3 219 258 257 
3 220 258 219 
3 258 220 221 
3 259 258 221 
3 222 261 260 
3 223 261 222 
3 259 221 222 
3 260 259 222 
3 223 224 261 
3 261 224 262 
3 224 263 262 
3 225 263 224 
3 263 225 226 
3 264 263 226 
3 226 227 264 
3 264 227 265 
3 227 228 265 
3 265 228 267 
3 229 269 268 
3 230 269 229 
3 267 228 229 
3 268 267 229 
3 230 231 269 
3 269 231 270 
3 231 271 270 
3 232 271 231 
3 271 232 233 
3 273 271 233 
3 234 275 274 
3 235 275 234 
3 273 233 234 
3 274 273 234 
3 236 278 276 
3 237 278 236 
3 275 235 236 
3 276 275 236 
3 237 238 278 
3 278 238 280 
3 238 281 280 
3 239 281 238 
3 281 239 240 
3 283 281 240 
3 241 288 284 
3 245 288 241 
3 283 240 241 
3 284 283 241 
3 243 242 286 
3 242 285 286 
3 244 243 287 
3 243 286 287 
3 246 244 289 
3 244 287 289 
3 288 245 246 
3 289 288 246 
3 247 294 293 
3 248 294 247 
3 294 248 249 
3 296 294 249 
3 250 251 252 
3 250 252 298 
3 250 298 249 
3 249 298 296 
3 252 253 255 
3 251 253 252 
3 299 298 252 
3 255 299 252 
3 253 254 255 
3 255 300 299 
3 255 254 300 
3 254 256 300 
3 300 256 257 
3 301 300 257 
3 257 302 301 
3 258 302 257 
3 302 258 259 
3 304 302 259 
3 260 306 305 
3 261 306 260 
3 304 259 260 
3 305 304 260 
3 261 262 306 
3 306 262 308 
3 262 309 308 
3 263 309 262 
3 309 263 264 
3 310 309 264 
3 311 265 266 
3 311 310 265 
3 310 264 265 
3 311 266 312 
3 266 314 313 
3 266 265 314 
3 265 267 314 
3 312 266 313 
3 268 316 315 
3 269 316 268 
3 314 267 268 
3 315 314 268 
3 317 270 272 
3 317 316 270 
3 316 269 270 
3 317 272 319 
3 270 271 272 
3 272 271 273 
3 272 273 319 
3 319 273 320 
3 274 275 277 
3 274 277 322 
3 274 322 273 
3 273 322 320 
3 276 278 279 
3 276 279 324 
3 275 276 324 
3 275 324 323 
3 275 323 277 
3 322 277 323 
3 279 280 282 
3 278 280 279 
3 325 324 279 
3 282 325 279 
3 280 281 282 
3 282 281 283 
3 282 283 325 
3 325 283 326 
3 284 288 290 
3 284 290 330 
3 284 330 283 
3 283 330 326 
3 285 292 286 
3 291 292 285 
3 333 286 292 
3 333 328 286 
3 328 287 286 
3 289 287 329 
3 287 328 329 
3 290 288 289 
3 290 289 331 
3 331 289 329 
3 330 290 331 
3 292 291 332 
3 334 292 332 
3 333 292 334 
3 293 294 295 
3 296 297 339 
3 294 296 339 
3 294 339 338 
3 294 338 295 
3 339 297 340 
3 297 342 341 
3 297 296 342 
3 296 298 342 
3 340 297 341 
3 298 299 342 
3 342 299 343 
3 299 344 343 
3 300 344 299 
3 301 303 345 
3 301 345 300 
3 300 345 344 
3 345 303 346 
3 301 302 303 
3 303 302 304 
3 303 304 346 
3 346 304 347 
3 305 306 307 
3 305 307 348 
3 305 348 304 
3 304 348 347 
3 307 350 349 
3 307 306 350 
3 306 308 350 
3 348 307 349 
3 308 351 350 
3 309 351 308 
3 351 309 310 
3 352 351 310 
3 310 353 352 
3 311 353 310 
3 353 311 312 
3 354 353 312 
3 313 356 355 
3 314 356 313 
3 354 312 313 
3 355 354 313 
3 315 316 318 
3 315 318 357 
3 315 357 314 
3 314 357 356 
3 316 317 318 
3 318 317 319 
3 318 319 357 
3 357 319 358 
3 359 320 321 
3 359 358 320 
3 358 319 320 
3 359 321 360 
3 321 362 361 
3 321 320 362 
3 320 322 362 
3 360 321 361 
3 323 364 363 
3 324 364 323 
3 362 322 323 
3 363 362 323 
3 324 325 364 
3 364 325 365 
3 366 326 327 
3 366 365 326 
3 365 325 326 
3 366 327 367 
3 327 370 368 
3 327 326 370 
3 326 330 370 
3 367 327 368 
3 328 333 335 
3 372 328 335 
3 372 369 328 
3 369 329 328 
3 331 329 371 
3 329 369 371 
3 370 330 331 
3 371 370 331 
3 332 337 334 
3 336 337 332 
3 334 337 375 
3 333 334 375 
3 333 375 373 
3 333 373 335 
3 372 335 373 
3 338 378 377 
3 339 378 338 
3 378 339 340 
3 379 378 340 
3 341 381 380 
3 342 381 341 
3 379 340 341 
3 380 379 341 
3 342 343 381 
3 381 343 382 
3 343 383 382 
3 344 383 343 
3 345 384 344 
3 344 384 383 
3 384 345 346 
3 385 384 346 
3 346 347 385 
3 385 347 386 
3 347 348 386 
3 386 348 387 
3 349 389 388 
3 350 389 349 
3 387 348 349 
3 388 387 349 
3 350 390 389 
3 351 390 350 
3 390 351 352 
3 391 390 352 
3 352 392 391 
3 353 392 352 
3 392 353 354 
3 393 392 354 
3 355 395 394 
3 356 395 355 
3 393 354 355 
3 394 393 355 
3 356 357 395 
3 395 357 396 
3 357 358 396 
3 396 358 397 
3 358 398 397 
3 359 398 358 
3 398 359 360 
3 399 398 360 
3 361 401 400 
3 362 401 361 
3 399 360 361 
3 400 399 361 
3 363 403 402 
3 364 403 363 
3 401 362 363 
3 402 401 363 
3 364 365 403 
3 403 365 404 
3 365 405 404 
3 366 405 365 
3 405 366 367 
3 406 405 367 
3 368 409 407 
3 370 409 368 
3 406 367 368 
3 407 406 368 
3 369 413 408 
3 372 413 369 
3 371 369 410 
3 369 408 410 
3 409 370 371 
3 410 409 371 
3 374 412 376 
3 411 412 374 
3 376 373 375 
3 376 412 373 
3 412 414 373 
3 413 372 373 
3 414 413 373 
3 377 418 417 
3 378 418 377 
3 418 378 379 
3 419 418 379 
3 380 421 420 
3 381 421 380 
3 419 379 380 
3 420 419 380 
3 381 382 421 
3 421 382 423 
3 382 424 423 
3 383 424 382 
3 384 426 383 
3 383 426 424 
3 426 384 385 
3 427 426 385 
3 385 386 427 
3 427 386 428 
3 386 387 428 
3 428 387 430 
3 388 432 431 
3 389 432 388 
3 430 387 388 
3 431 430 388 
3 389 433 432 
3 390 433 389 
3 433 390 391 
3 435 433 391 
3 391 436 435 
3 392 436 391 
3 436 392 393 
3 438 436 393 
3 394 440 439 
3 395 440 394 
3 438 393 394 
3 439 438 394 
3 395 396 440 
3 440 396 442 
3 396 397 442 
3 442 397 443 
3 397 444 443 
3 398 444 397 
3 444 398 399 
3 445 444 399 
3 400 447 446 
3 401 447 400 
3 445 399 400 
3 446 445 400 
3 402 449 448 
3 403 449 402 
3 447 401 402 
3 448 447 402 
3 403 404 449 
3 449 404 450 
3 404 451 450 
3 405 451 404 
3 451 405 406 
3 452 451 406 
3 407 455 453 
3 409 455 407 
3 452 406 407 
3 453 452 407 
3 408 457 454 
3 413 457 408 
3 410 408 456 
3 408 454 456 
3 455 409 410 
3 456 455 410 
3 411 416 412 
3 415 416 411 
3 460 412 416 
3 460 458 412 
3 458 414 412 
3 457 413 414 
3 458 457 414 
3 417 463 462 
3 418 463 417 
3 463 418 419 
3 464 463 419 
3 420 421 422 
3 420 422 465 
3 420 465 419 
3 419 465 464 
3 422 423 425 
3 421 423 422 
3 467 465 422 
3 425 467 422 
3 423 424 425 
3 425 469 467 
3 425 424 469 
3 424 426 469 
3 469 426 427 
3 470 469 427 
3 471 428 429 
3 471 470 428 
3 470 427 428 
3 471 429 472 
3 429 475 473 
3 429 428 475 
3 428 430 475 
3 472 429 473 
3 431 432 434 
3 431 434 476 
3 431 476 430 
3 430 476 475 
3 432 433 434 
3 435 437 478 
3 433 435 478 
3 433 478 476 
3 433 476 434 
3 478 437 479 
3 435 436 437 
3 437 436 438 
3 437 438 479 
3 479 438 481 
3 439 440 441 
3 439 441 482 
3 439 482 438 
3 438 482 481 
3 441 485 483 
3 441 440 485 
3 440 442 485 
3 482 441 483 
3 442 443 485 
3 485 443 486 
3 443 487 486 
3 444 487 443 
3 487 444 445 
3 488 487 445 
3 446 490 489 
3 447 490 446 
3 488 445 446 
3 489 488 446 
3 448 492 491 
3 449 492 448 
3 490 447 448 
3 491 490 448 
3 449 450 492 
3 492 450 493 
3 450 494 493 
3 451 494 450 
3 494 451 452 
3 495 494 452 
3 453 497 496 
3 455 497 453 
3 495 452 453 
3 496 495 453 
3 454 457 459 
3 499 454 459 
3 499 498 454 
3 498 456 454 
3 497 455 456 
3 498 497 456 
3 458 460 461 
3 458 461 502 
3 457 458 502 
3 457 502 500 
3 457 500 459 
3 499 459 500 
3 462 505 504 
3 463 505 462 
3 505 463 464 
3 506 505 464 
3 466 508 507 
3 466 507 506 
3 466 506 465 
3 465 506 464 
3 468 508 466 
3 509 508 468 
3 465 467 468 
3 466 465 468 
3 468 510 509 
3 467 510 468 
3 467 469 510 
3 469 511 510 
3 511 469 470 
3 512 511 470 
3 474 470 471 
3 474 513 470 
3 513 512 470 
3 471 472 474 
3 473 513 474 
3 473 475 513 
3 475 514 513 
3 472 473 474 
3 477 516 515 
3 477 515 514 
3 477 514 476 
3 476 514 475 
3 477 517 516 
3 480 518 517 
3 478 480 517 
3 478 517 477 
3 478 477 476 
3 478 479 480 
3 480 519 518 
3 519 480 479 
3 519 479 520 
3 520 479 481 
3 484 522 521 
3 484 521 520 
3 484 520 482 
3 482 520 481 
3 483 522 484 
3 483 485 522 
3 485 523 522 
3 482 483 484 
3 485 486 523 
3 523 486 524 
3 486 525 524 
3 487 525 486 
3 525 487 488 
3 526 525 488 
3 489 528 527 
3 490 528 489 
3 526 488 489 
3 527 526 489 
3 491 530 529 
3 492 530 491 
3 528 490 491 
3 529 528 491 
3 492 493 530 
3 530 493 531 
3 493 532 531 
3 494 532 493 
3 532 494 495 
3 533 532 495 
3 496 536 534 
3 497 536 496 
3 533 495 496 
3 534 533 496 
3 501 538 535 
3 501 498 499 
3 501 535 498 
3 535 537 498 
3 536 497 498 
3 537 536 498 
3 503 541 539 
3 538 503 539 
3 501 503 538 
3 501 502 503 
3 501 500 502 
3 499 500 501 
3 504 544 543 
3 505 544 504 
3 544 505 506 
3 545 544 506 
3 507 547 546 
3 508 547 507 
3 545 506 507 
3 546 545 507 
3 508 509 547 
3 547 509 548 
3 509 549 548 
3 510 549 509 
3 511 550 510 
3 510 550 549 
3 550 511 512 
3 551 550 512 
3 512 513 551 
3 551 513 552 
3 513 514 552 
3 552 514 553 
3 515 555 554 
3 516 555 515 
3 553 514 515 
3 554 553 515 
3 516 556 555 
3 517 556 516 
3 556 517 518 
3 557 556 518 
3 518 558 557 
3 519 558 518 
3 558 519 520 
3 559 558 520 
3 521 561 560 
3 522 561 521 
3 559 520 521 
3 560 559 521 
3 522 523 561 
3 561 523 562 
3 523 524 562 
3 562 524 563 
3 524 564 563 
3 525 564 524 
3 564 525 526 
3 565 564 526 
3 527 567 566 
3 528 567 527 
3 565 526 527 
3 566 565 527 
3 529 569 568 
3 530 569 529 
3 567 528 529 
3 568 567 529 
3 530 531 569 
3 569 531 570 
3 531 571 570 
3 532 571 531 
3 571 532 533 
3 572 571 533 
3 534 575 573 
3 536 575 534 
3 572 533 534 
3 573 572 534 
3 535 579 574 
3 538 579 535 
3 537 535 576 
3 535 574 576 
3 575 536 537 
3 576 575 537 
3 540 578 542 
3 577 578 540 
3 542 539 541 
3 542 578 539 
3 578 580 539 
3 579 538 539 
3 580 579 539 
3 543 585 583 
3 544 585 543 
3 585 544 545 
3 586 585 545 
3 546 589 587 
3 547 589 546 
3 586 545 546 
3 587 586 546 
3 547 548 589 
3 589 548 590 
3 548 591 590 
3 549 591 548 
3 550 592 549 
3 549 592 591 
3 592 550 551 
3 593 592 551 
3 551 552 593 
3 593 552 595 
3 552 553 595 
3 595 553 596 
3 554 599 597 
3 555 599 554 
3 596 553 554 
3 597 596 554 
3 555 600 599 
3 556 600 555 
3 600 556 557 
3 601 600 557 
3 557 602 601 
3 558 602 557 
3 602 558 559 
3 603 602 559 
3 560 605 604 
3 561 605 560 
3 603 559 560 
3 604 603 560 
3 561 562 605 
3 605 562 606 
3 562 563 606 
3 606 563 608 
3 563 609 608 
3 564 609 563 
3 609 564 565 
3 610 609 565 
3 566 613 611 
3 567 613 566 
3 610 565 566 
3 611 610 566 
3 568 615 614 
3 569 615 568 
3 613 567 568 
3 614 613 568 
3 569 570 615 
3 615 570 616 
3 570 617 616 
3 571 617 570 
3 617 571 572 
3 618 617 572 
3 573 622 619 
3 575 622 573 
3 618 572 573 
3 619 618 573 
3 574 624 621 
3 579 624 574 
3 576 574 623 
3 574 621 623 
3 622 575 576 
3 623 622 576 
3 577 582 578 
3 581 582 577 
3 628 578 582 
3 628 625 578 
3 625 580 578 
3 624 579 580 
3 625 624 580 
3 584 631 630 
3 588 632 631 
3 585 588 631 
3 585 631 584 
3 585 584 583 
3 585 586 588 
3 587 632 588 
3 587 589 632 
3 589 633 632 
3 586 587 588 
3 589 590 633 
3 633 590 635 
3 590 637 635 
3 591 637 590 
3 594 638 637 
3 594 637 592 
3 592 637 591 
3 592 593 594 
3 594 639 638 
3 639 594 593 
3 639 593 640 
3 640 593 595 
3 598 642 641 
3 598 641 640 
3 598 640 596 
3 596 640 595 
3 597 642 598 
3 597 599 642 
3 599 643 642 
3 596 597 598 
3 599 644 643 
3 600 644 599 
3 644 600 601 
3 645 644 601 
3 601 646 645 
3 602 646 601 
3 646 602 603 
3 647 646 603 
3 604 650 648 
3 605 650 604 
3 647 603 604 
3 648 647 604 
3 607 652 651 
3 607 651 650 
3 607 650 606 
3 606 650 605 
3 607 653 652 
3 653 607 606 
3 653 606 654 
3 654 606 608 
3 612 608 609 
3 612 656 608 
3 656 654 608 
3 609 610 612 
3 611 656 612 
3 611 613 656 
3 613 657 656 
3 610 611 612 
3 614 660 658 
3 615 660 614 
3 657 613 614 
3 658 657 614 
3 615 616 660 
3 660 616 662 
3 620 616 617 
3 620 664 616 
3 664 662 616 
3 617 618 620 
3 619 664 620 
3 619 622 664 
3 622 667 664 
3 618 619 620 
3 626 672 665 
3 626 621 624 
3 626 665 621 
3 665 666 621 
3 623 621 668 
3 621 666 668 
3 667 622 623 
3 668 667 623 
3 627 673 629 
3 670 673 627 
3 672 629 673 
3 626 629 672 
3 626 628 629 
3 626 625 628 
3 624 625 626 
3 630 676 675 
3 631 676 630 
3 676 631 632 
3 677 676 632 
3 634 679 678 
3 634 678 677 
3 634 677 633 
3 633 677 632 
3 636 679 634 
3 680 679 636 
3 633 635 636 
3 634 633 636 
3 636 681 680 
3 635 681 636 
3 635 637 681 
3 637 682 681 
3 682 637 638 
3 683 682 638 
3 638 684 683 
3 639 684 638 
3 684 639 640 
3 685 684 640 
3 641 687 686 
3 642 687 641 
3 685 640 641 
3 686 685 641 
3 642 643 687 
3 687 643 688 
3 643 689 688 
3 644 689 643 
3 689 644 645 
3 690 689 645 
3 649 645 646 
3 649 691 645 
3 691 690 645 
3 646 647 649 
3 648 691 649 
3 648 650 691 
3 650 692 691 
3 647 648 649 
3 651 694 693 
3 652 694 651 
3 692 650 651 
3 693 692 651 
3 655 652 653 
3 655 695 652 
3 695 694 652 
3 653 654 655 
3 655 696 695 
3 696 655 654 
3 696 654 697 
3 697 654 656 
3 659 699 698 
3 659 698 697 
3 659 697 657 
3 657 697 656 
3 661 701 700 
3 699 661 700 
3 659 661 699 
3 659 660 661 
3 659 658 660 
3 657 658 659 
3 663 701 661 
3 702 701 663 
3 660 662 663 
3 661 660 663 
3 663 703 702 
3 703 663 662 
3 703 662 704 
3 704 662 664 
3 669 709 705 
3 669 705 704 
3 669 704 667 
3 667 704 664 
3 671 707 674 
3 706 707 671 
3 674 665 672 
3 674 707 665 
3 707 708 665 
3 666 665 710 
3 665 708 710 
3 709 669 668 
3 709 668 710 
3 710 668 666 
3 667 668 669 
3 673 670 671 
3 674 673 671 
3 672 673 674 
3 675 715 713 
3 676 715 675 
3 715 676 677 
3 716 715 677 
3 678 721 717 
3 679 721 678 
3 716 677 678 
3 717 716 678 
3 679 680 721 
3 721 680 723 
3 680 725 723 
3 681 725 680 
3 682 726 681 
3 681 726 725 
3 726 682 683 
3 727 726 683 
3 683 729 727 
3 684 729 683 
3 729 684 685 
3 730 729 685 
3 686 733 731 
3 687 733 686 
3 730 685 686 
3 731 730 686 
3 687 688 733 
3 733 688 735 
3 688 737 735 
3 689 737 688 
3 737 689 690 
3 738 737 690 
3 690 691 738 
3 738 691 740 
3 691 692 740 
3 740 692 741 
3 693 744 742 
3 694 744 693 
3 741 692 693 
3 742 741 693 
3 694 695 744 
3 744 695 746 
3 695 747 746 
3 696 747 695 
3 747 696 697 
3 748 747 697 
3 698 750 749 
3 699 750 698 
3 748 697 698 
3 749 748 698 
3 700 752 751 
3 701 752 700 
3 750 699 700 
3 751 750 700 
3 701 702 752 
3 752 702 754 
3 702 755 754 
3 703 755 702 
3 755 703 704 
3 756 755 704 
3 705 761 757 
3 709 761 705 
3 756 704 705 
3 757 756 705 
3 707 706 759 
3 706 758 759 
3 708 707 760 
3 707 759 760 
3 710 708 762 
3 708 760 762 
3 761 709 710 
3 762 761 710 
3 712 763 711 
3 764 763 712 
3 714 764 712 
3 765 764 714 
3 718 770 765 
3 715 718 765 
3 715 765 714 
3 715 714 713 
3 715 716 718 
3 719 768 720 
3 766 768 719 
3 720 771 722 
3 768 771 720 
3 770 722 771 
3 718 722 770 
3 718 721 722 
3 718 717 721 
3 716 717 718 
3 720 773 719 
3 774 773 720 
3 774 724 776 
3 774 720 724 
3 720 722 724 
3 721 723 724 
3 722 721 724 
3 724 778 776 
3 723 778 724 
3 723 725 778 
3 725 779 778 
3 728 780 779 
3 728 779 726 
3 726 779 725 
3 726 727 728 
3 728 781 780 
3 732 782 781 
3 729 732 781 
3 729 781 728 
3 729 728 727 
3 729 730 732 
3 734 784 783 
3 782 734 783 
3 732 734 782 
3 732 733 734 
3 732 731 733 
3 730 731 732 
3 736 784 734 
3 785 784 736 
3 733 735 736 
3 734 733 736 
3 736 787 785 
3 739 788 787 
3 737 739 787 
3 737 787 736 
3 737 736 735 
3 737 738 739 
3 739 789 788 
3 789 739 738 
3 789 738 790 
3 790 738 740 
3 743 793 791 
3 743 791 790 
3 743 790 741 
3 741 790 740 
3 745 795 794 
3 793 745 794 
3 743 745 793 
3 743 744 745 
3 743 742 744 
3 741 742 743 
3 745 796 795 
3 796 745 744 
3 796 744 797 
3 797 744 746 
3 746 799 797 
3 747 799 746 
3 799 747 748 
3 800 799 748 
3 749 804 801 
3 750 804 749 
3 800 748 749 
3 801 800 749 
3 753 807 803 
3 753 751 752 
3 753 803 751 
3 803 805 751 
3 804 750 751 
3 805 804 751 
3 753 809 807 
3 809 753 752 
3 809 752 811 
3 811 752 754 
3 754 813 811 
3 755 813 754 
3 813 755 756 
3 814 813 756 
3 757 821 815 
3 761 821 757 
3 814 756 757 
3 815 814 757 
3 759 758 818 
3 758 817 818 
3 760 759 819 
3 759 818 819 
3 762 760 822 
3 760 819 822 
3 821 761 762 
3 822 821 762 
3 763 764 769 
3 767 763 769 
3 764 765 772 
3 769 764 772 
3 765 770 772 
3 768 766 767 
3 769 768 767 
3 771 768 769 
3 772 771 769 
3 770 771 772 
3 773 774 777 
3 775 773 777 
3 774 776 777 
3 777 824 775 
3 825 824 777 
3 776 825 777 
3 776 778 825 
3 778 826 825 
3 779 827 778 
3 778 827 826 
3 827 779 780 
3 828 827 780 
3 780 830 828 
3 781 830 780 
3 830 781 782 
3 831 830 782 
3 783 834 832 
3 784 834 783 
3 831 782 783 
3 832 831 783 
3 786 837 835 
3 786 835 834 
3 786 834 785 
3 785 834 784 
3 786 838 837 
3 785 838 786 
3 785 787 838 
3 787 839 838 
3 839 787 788 
3 840 839 788 
3 792 788 789 
3 792 842 788 
3 842 840 788 
3 789 790 792 
3 791 842 792 
3 791 793 842 
3 793 843 842 
3 790 791 792 
3 794 846 844 
3 795 846 794 
3 843 793 794 
3 844 843 794 
3 798 795 796 
3 798 848 795 
3 848 846 795 
3 796 797 798 
3 798 849 848 
3 802 850 849 
3 799 802 849 
3 799 849 798 
3 799 798 797 
3 799 800 802 
3 806 853 851 
3 850 806 851 
3 802 806 850 
3 802 804 806 
3 802 801 804 
3 800 801 802 
3 808 856 852 
3 808 803 807 
3 808 852 803 
3 852 854 803 
3 853 806 805 
3 853 805 854 
3 854 805 803 
3 804 805 806 
3 810 856 808 
3 859 856 810 
3 807 809 812 
3 807 812 808 
3 808 812 810 
3 809 811 812 
3 810 861 859 
3 812 861 810 
3 862 861 812 
3 816 864 862 
3 813 816 862 
3 813 862 812 
3 813 812 811 
3 813 814 816 
3 820 869 863 
3 820 865 823 
3 863 865 820 
3 864 823 865 
3 816 823 864 
3 816 821 823 
3 816 815 821 
3 814 815 816 
3 818 817 870 
3 817 867 870 
3 869 820 819 
3 869 819 870 
3 870 819 818 
3 822 819 820 
3 823 822 820 
3 821 822 823 
3 825 873 824 
3 824 873 872 
3 826 874 825 
3 825 874 873 
3 829 875 874 
3 829 874 827 
3 827 874 826 
3 827 828 829 
3 829 877 875 
3 833 878 877 
3 830 833 877 
3 830 877 829 
3 830 829 828 
3 830 831 833 
3 836 880 879 
3 878 836 879 
3 833 836 878 
3 833 834 836 
3 833 832 834 
3 831 832 833 
3 835 880 836 
3 835 837 880 
3 837 884 880 
3 834 835 836 
3 837 886 884 
3 838 886 837 
3 841 887 886 
3 841 886 839 
3 839 886 838 
3 839 840 841 
3 841 888 887 
3 888 841 840 
3 888 840 889 
3 889 840 842 
3 845 891 890 
3 845 890 889 
3 845 889 843 
3 843 889 842 
3 847 895 892 
3 891 847 892 
3 845 847 891 
3 845 846 847 
3 845 844 846 
3 843 844 845 
3 847 897 895 
3 897 847 846 
3 897 846 898 
3 898 846 848 
3 848 900 898 
3 849 900 848 
3 900 849 850 
3 901 900 850 
3 851 907 902 
3 853 907 851 
3 901 850 851 
3 902 901 851 
3 855 905 857 
3 904 905 855 
3 857 852 856 
3 857 905 852 
3 905 906 852 
3 854 852 908 
3 852 906 908 
3 907 853 854 
3 908 907 854 
3 857 860 855 
3 860 858 855 
3 856 859 860 
3 857 856 860 
3 860 910 858 
3 911 910 860 
3 859 911 860 
3 859 861 911 
3 861 912 911 
3 866 915 912 
3 866 912 862 
3 862 912 861 
3 862 864 866 
3 868 914 871 
3 913 914 868 
3 871 863 869 
3 871 914 863 
3 914 916 863 
3 915 866 865 
3 915 865 916 
3 916 865 863 
3 864 865 866 
3 870 867 868 
3 871 870 868 
3 869 870 871 
3 873 919 872 
3 872 919 918 
3 876 920 919 
3 876 919 874 
3 874 919 873 
3 874 875 876 
3 876 921 920 
3 875 921 876 
3 875 877 921 
3 877 922 921 
3 922 877 878 
3 924 922 878 
3 881 927 923 
3 881 879 880 
3 881 923 879 
3 923 925 879 
3 924 878 879 
3 925 924 879 
3 882 928 883 
3 926 928 882 
3 927 883 928 
3 927 881 883 
3 881 885 883 
3 880 884 885 
3 881 880 885 
3 883 929 882 
3 930 929 883 
3 885 930 883 
3 931 930 885 
3 884 931 885 
3 884 886 931 
3 886 932 931 
3 932 886 887 
3 933 932 887 
3 887 934 933 
3 888 934 887 
3 934 888 889 
3 935 934 889 
3 890 940 936 
3 891 940 890 
3 935 889 890 
3 936 935 890 
3 893 938 894 
3 937 938 893 
3 894 939 896 
3 938 939 894 
3 896 892 895 
3 896 939 892 
3 939 941 892 
3 940 891 892 
3 941 940 892 
3 894 942 893 
3 943 942 894 
3 896 943 894 
3 944 943 896 
3 899 945 944 
3 897 899 944 
3 897 944 896 
3 897 896 895 
3 897 898 899 
3 899 946 945 
3 903 947 946 
3 900 903 946 
3 900 946 899 
3 900 899 898 
3 900 901 903 
3 909 951 948 
3 947 909 948 
3 903 909 947 
3 903 907 909 
3 903 902 907 
3 901 902 903 
3 905 904 950 
3 904 949 950 
3 906 905 952 
3 905 950 952 
3 951 909 908 
3 951 908 952 
3 952 908 906 
3 907 908 909 
3 911 954 910 
3 910 954 953 
3 917 956 954 
3 917 954 912 
3 912 954 911 
3 912 915 917 
3 914 913 957 
3 913 955 957 
3 956 917 916 
3 956 916 957 
3 957 916 914 
3 915 916 917 
